<svg width="281" height="218" viewBox="0 0 281 218" fill="none" xmlns="http://www.w3.org/2000/svg">
<g clip-path="url(#clip0_1158_2072)">
<path d="M58.6279 143.393C45.9686 130.925 40.6219 117.919 43.5723 106.77C47.3586 92.4618 64.1794 82.5691 89.7215 79.6282L89.8158 80.4489C64.6293 83.3487 48.0652 93.0193 44.3706 106.981C41.4992 117.831 46.7683 130.554 59.2072 142.804L58.6279 143.393Z" fill="#ECF1F4"/>
<path d="M180.769 187.647C164.969 187.647 147.8 185.299 130.746 180.782C109.657 175.197 90.3205 166.766 74.8271 156.401L75.2859 155.715C90.7047 166.029 109.956 174.421 130.957 179.983C149.937 185.01 169.058 187.339 186.248 186.725L186.277 187.55C184.462 187.615 182.626 187.648 180.769 187.647Z" fill="#ECF1F4"/>
<path d="M217.015 182.453L216.75 181.671C230.881 176.891 239.719 169.192 242.309 159.404C245.601 146.962 238.448 132.524 222.168 118.749C205.804 104.904 182.206 93.4164 155.722 86.4023L155.933 85.6038C182.533 92.6487 206.245 104.196 222.701 118.118C239.239 132.111 246.486 146.848 243.107 159.616C240.443 169.684 231.42 177.581 217.015 182.453Z" fill="#ECF1F4"/>
<path d="M87.2633 187.993C56.2181 174.218 32.2954 156.348 19.9025 137.672L20.5902 137.215C32.8975 155.761 56.6946 173.526 87.5979 187.238L87.2633 187.993Z" fill="#ECF1F4"/>
<path d="M196.416 211.856C193.214 211.856 189.957 211.784 186.645 211.641L186.681 210.816C211.394 211.886 233.198 208.928 249.742 202.258L250.051 203.025C235.619 208.842 217.226 211.856 196.416 211.856Z" fill="#ECF1F4"/>
<path d="M178.403 80.369C173.272 78.6977 167.994 77.1415 162.716 75.7437C132.343 67.6998 102.487 64.8437 76.3728 67.486L76.2898 66.6641C102.501 64.0131 132.46 66.876 162.927 74.9451C168.22 76.347 173.513 77.9076 178.659 79.5837L178.403 80.369Z" fill="#ECF1F4"/>
<path d="M39.2254 144.632C26.5661 132.164 21.2195 119.158 24.1699 108.009C27.9562 93.7008 44.7769 83.8081 70.319 80.8672L70.4133 81.6879C45.2268 84.5877 28.6627 94.2583 24.9681 108.22C22.0967 119.07 27.3658 131.793 39.8047 144.043L39.2254 144.632Z" fill="#ECF1F4"/>
<path d="M161.366 188.886C145.567 188.886 128.398 186.538 111.344 182.021C90.2546 176.436 70.9181 168.005 55.4247 157.641L55.8835 156.954C71.3023 167.268 90.5531 175.66 111.555 181.222C130.534 186.249 149.656 188.578 166.845 187.964L166.875 188.789C165.06 188.854 163.223 188.887 161.366 188.886Z" fill="#ECF1F4"/>
<path d="M197.612 183.692L197.348 182.91C211.478 178.13 220.316 170.431 222.907 160.643C226.199 148.201 219.046 133.763 202.765 119.988C186.401 106.143 162.804 94.6554 136.32 87.6413L136.531 86.8428C163.131 93.8877 186.843 105.435 203.298 119.357C219.836 133.35 227.084 148.087 223.705 160.855C221.04 170.923 212.018 178.82 197.612 183.692Z" fill="#ECF1F4"/>
<path d="M67.8608 189.231C36.8157 175.457 12.893 157.586 0.5 138.911L1.18777 138.454C13.4951 157 37.2922 174.765 68.1955 188.476L67.8608 189.231Z" fill="#ECF1F4"/>
<path d="M177.013 213.095C173.811 213.095 170.554 213.023 167.243 212.88L167.278 212.055C191.991 213.125 213.796 210.167 230.339 203.497L230.648 204.264C216.217 210.081 197.823 213.095 177.013 213.095Z" fill="#ECF1F4"/>
<path d="M159 81.608C153.869 79.9367 148.591 78.3806 143.313 76.9827C112.941 68.9388 83.0843 66.0828 56.9704 68.725L56.8873 67.9031C83.0986 65.2521 113.057 68.115 143.525 76.1841C148.817 77.586 154.11 79.1466 159.256 80.8228L159 81.608Z" fill="#ECF1F4"/>
<path d="M14.5725 122.509C20.5056 115.854 29.97 111.798 38.5468 114.226C30.6343 119.827 24.9575 128.048 22.5207 137.434C21.594 141.057 20.9405 145.184 17.9285 147.399C16.0544 148.777 13.5711 149.107 11.2664 148.793C8.96151 148.479 6.78219 147.582 4.63229 146.694L4.05377 146.744C5.71705 137.983 8.63938 129.163 14.5725 122.509Z" fill="#ECF1F4"/>
<path d="M38.5206 114.411C31.3498 116.148 24.9083 120.101 20.1112 125.709C19.057 126.898 18.1968 128.246 17.5622 129.702C16.9898 131.142 16.8131 132.708 17.0504 134.238C17.243 135.67 17.6058 137.112 17.4472 138.566C17.355 139.308 17.1069 140.023 16.7191 140.663C16.3313 141.304 15.8127 141.854 15.1971 142.28C13.691 143.38 11.8795 143.873 10.0913 144.294C8.10578 144.761 6.03607 145.215 4.41757 146.535C4.22147 146.695 3.98486 146.381 4.18067 146.222C6.99658 143.925 10.9101 144.22 14.0256 142.552C15.4794 141.773 16.7075 140.552 17.006 138.876C17.2671 137.41 16.8943 135.923 16.6868 134.475C16.4334 132.985 16.5485 131.456 17.022 130.021C17.5804 128.537 18.3873 127.158 19.4081 125.945C21.6627 123.176 24.3384 120.778 27.3373 118.841C30.7477 116.611 34.5143 114.98 38.4742 114.021C38.7193 113.961 38.7641 114.352 38.5206 114.411Z" fill="#ECF1F4"/>
<path d="M21.5497 123.812C20.7184 122.879 20.2458 121.681 20.216 120.432C20.1863 119.182 20.6015 117.963 21.3874 116.992C21.5471 116.796 21.8591 117.035 21.6992 117.231C20.9656 118.134 20.579 119.27 20.6091 120.433C20.6391 121.597 21.0839 122.711 21.863 123.575C22.0321 123.763 21.7178 123.999 21.5497 123.812Z" fill="#ECF1F4"/>
<path d="M16.8572 133.525C19.4053 133.695 21.9235 132.897 23.9098 131.291C24.1064 131.132 24.3431 131.446 24.1467 131.605C22.0766 133.272 19.4543 134.097 16.8031 133.915C16.5505 133.897 16.6059 133.508 16.8572 133.525Z" fill="#ECF1F4"/>
<path d="M30.8361 117.124C31.0825 117.552 31.4314 117.912 31.8513 118.172C32.2712 118.432 32.749 118.583 33.2419 118.612C33.4947 118.627 33.4389 119.016 33.1878 119.002C32.6434 118.967 32.1159 118.799 31.6513 118.513C31.1868 118.227 30.7993 117.831 30.5227 117.361C30.4929 117.319 30.4803 117.267 30.4874 117.216C30.4945 117.165 30.5208 117.118 30.5609 117.086C30.6026 117.055 30.6549 117.041 30.7064 117.048C30.7579 117.055 30.8045 117.083 30.8361 117.124Z" fill="#ECF1F4"/>
<path d="M50.7218 141.852C50.5637 141.848 50.4056 141.843 50.2455 141.841C48.1197 141.793 45.9935 141.917 43.8878 142.212C43.7246 142.233 43.5596 142.256 43.3973 142.281C38.3319 143.047 33.4527 144.748 29.0078 147.296C27.24 148.312 25.5521 149.461 23.9585 150.733C21.7579 152.49 19.5115 154.569 16.9351 155.47C16.6673 155.567 16.3938 155.647 16.1162 155.71L4.1598 147.446C4.14205 147.414 4.12229 147.384 4.1044 147.351L3.61194 147.043C3.68954 146.972 3.77157 146.899 3.84917 146.828C3.89402 146.787 3.94154 146.747 3.98637 146.705C4.01712 146.678 4.048 146.651 4.07419 146.625C4.08439 146.616 4.09472 146.607 4.10305 146.6C4.12924 146.574 4.15635 146.553 4.18065 146.529C4.63803 146.124 5.09904 145.72 5.56371 145.32C5.56559 145.317 5.5656 145.317 5.57015 145.316C9.11843 142.274 12.9518 139.501 17.084 137.398C17.2084 137.335 17.3345 137.269 17.4643 137.209C19.3322 136.272 21.2735 135.488 23.2689 134.867C24.3627 134.531 25.4727 134.25 26.5948 134.025C29.4954 133.451 32.4681 133.337 35.404 133.688C41.2566 134.387 46.8207 136.95 50.448 141.502C50.5408 141.618 50.6309 141.733 50.7218 141.852Z" fill="#ECF1F4"/>
<path d="M50.59 141.985C43.8192 139.053 36.297 138.33 29.0918 139.918C27.5346 140.232 26.0367 140.79 24.6532 141.571C23.3301 142.375 22.2464 143.52 21.5147 144.885C20.8069 146.144 20.2287 147.514 19.2274 148.579C18.7067 149.116 18.0783 149.537 17.3834 149.815C16.6886 150.093 15.9429 150.22 15.1953 150.189C13.3306 150.16 11.5874 149.463 9.90637 148.722C8.03991 147.899 6.11426 147.015 4.02755 147.094C3.77471 147.104 3.77462 146.711 4.02708 146.701C7.6576 146.563 10.6048 149.156 14.0964 149.7C15.7256 149.955 17.4412 149.719 18.6883 148.561C19.7788 147.548 20.3762 146.136 21.0818 144.855C21.7761 143.513 22.7883 142.361 24.03 141.5C25.3693 140.651 26.8432 140.037 28.3887 139.683C31.8553 138.83 35.4344 138.527 38.9949 138.786C43.0601 139.06 47.0487 140.027 50.7879 141.646C51.0193 141.746 50.8199 142.085 50.59 141.985Z" fill="#ECF1F4"/>
<path d="M31.3817 139.27C31.2795 138.024 31.6232 136.783 32.3513 135.768C33.0795 134.752 34.1448 134.029 35.3569 133.726C35.6024 133.666 35.7076 134.045 35.4618 134.105C34.3326 134.385 33.3403 135.059 32.6642 136.006C31.988 136.953 31.6725 138.11 31.7746 139.269C31.7965 139.521 31.4035 139.52 31.3817 139.27Z" fill="#ECF1F4"/>
<path d="M21.7895 144.199C23.7221 145.869 26.2128 146.749 28.765 146.663C29.0179 146.654 29.0181 147.047 28.7655 147.056C26.1094 147.14 23.5193 146.219 21.512 144.477C21.3208 144.311 21.5993 144.034 21.7895 144.199Z" fill="#ECF1F4"/>
<path d="M42.8216 139.523C42.7607 140.013 42.8226 140.511 43.0015 140.971C43.1804 141.431 43.4708 141.84 43.8467 142.16C44.0399 142.324 43.7612 142.601 43.5692 142.439C43.1556 142.083 42.8354 141.631 42.6366 141.123C42.4378 140.615 42.3664 140.066 42.4287 139.523C42.4303 139.472 42.4515 139.423 42.4879 139.386C42.5243 139.35 42.5733 139.328 42.6249 139.327C42.6769 139.327 42.7267 139.348 42.7636 139.384C42.8004 139.421 42.8212 139.471 42.8216 139.523Z" fill="#ECF1F4"/>
<path d="M247.054 177.062C243.701 168.8 236.15 161.797 227.257 161.2C232.827 169.137 235.412 178.788 234.553 188.447C234.209 192.171 233.438 196.277 235.531 199.376C236.833 201.305 239.061 202.45 241.337 202.929C243.613 203.408 245.967 203.297 248.29 203.183L248.818 203.424C250.195 194.614 250.406 185.325 247.054 177.062Z" fill="#ECF1F4"/>
<path d="M227.219 161.384C233.389 165.431 238.128 171.32 240.762 178.214C241.355 179.688 241.713 181.247 241.821 182.832C241.877 184.38 241.517 185.915 240.779 187.277C240.117 188.56 239.291 189.796 238.952 191.219C238.789 191.949 238.782 192.706 238.933 193.439C239.083 194.172 239.386 194.866 239.823 195.473C240.872 197.016 242.412 198.09 243.955 199.087C245.668 200.195 247.465 201.318 248.546 203.106C248.677 203.322 249.005 203.106 248.874 202.89C246.994 199.78 243.209 198.742 240.835 196.123C239.727 194.901 238.981 193.338 239.263 191.659C239.509 190.191 240.36 188.916 241.042 187.622C241.781 186.304 242.187 184.825 242.223 183.314C242.195 181.728 241.899 180.159 241.345 178.672C240.152 175.306 238.437 172.149 236.264 169.316C233.801 166.069 230.801 163.267 227.394 161.032C227.183 160.893 227.01 161.246 227.219 161.384Z" fill="#ECF1F4"/>
<path d="M240.044 175.944C241.141 175.345 241.988 174.375 242.436 173.209C242.884 172.042 242.902 170.754 242.489 169.575C242.404 169.337 242.03 169.457 242.115 169.695C242.502 170.793 242.485 171.992 242.065 173.078C241.646 174.164 240.853 175.064 239.829 175.615C239.606 175.736 239.823 176.063 240.044 175.944Z" fill="#ECF1F4"/>
<path d="M241.201 186.67C238.744 185.973 236.64 184.375 235.309 182.195C235.177 181.978 234.849 182.194 234.98 182.41C236.37 184.676 238.563 186.335 241.121 187.055C241.365 187.123 241.443 186.738 241.201 186.67Z" fill="#ECF1F4"/>
<path d="M233.545 166.523C233.169 166.843 232.72 167.065 232.237 167.168C231.754 167.272 231.253 167.254 230.779 167.116C230.536 167.044 230.458 167.429 230.699 167.5C231.224 167.65 231.777 167.67 232.311 167.557C232.844 167.443 233.342 167.201 233.761 166.851C233.803 166.821 233.832 166.777 233.843 166.726C233.853 166.676 233.844 166.623 233.817 166.579C233.788 166.536 233.744 166.505 233.693 166.495C233.642 166.484 233.589 166.494 233.545 166.523Z" fill="#ECF1F4"/>
<path d="M206.509 183.126C206.659 183.175 206.809 183.224 206.961 183.276C208.979 183.945 210.94 184.776 212.824 185.763C212.971 185.837 213.119 185.914 213.263 185.992C217.776 188.417 221.8 191.66 225.13 195.554C226.454 197.105 227.658 198.755 228.731 200.489C230.214 202.883 231.631 205.597 233.755 207.312C233.974 207.493 234.205 207.66 234.445 207.813L248.483 204.05C248.51 204.025 248.539 204.004 248.567 203.979L249.134 203.855C249.085 203.762 249.032 203.666 248.983 203.573C248.954 203.518 248.923 203.465 248.895 203.411C248.875 203.375 248.855 203.339 248.839 203.305C248.832 203.293 248.826 203.282 248.82 203.273C248.804 203.239 248.786 203.21 248.771 203.179C248.476 202.644 248.178 202.109 247.875 201.576C247.874 201.572 247.874 201.572 247.87 201.57C245.55 197.511 242.871 193.611 239.686 190.241C239.59 190.139 239.494 190.035 239.391 189.935C237.947 188.424 236.382 187.034 234.711 185.778C233.794 185.093 232.843 184.455 231.861 183.867C229.323 182.351 226.561 181.244 223.678 180.587C217.931 179.277 211.83 179.821 206.884 182.888C206.758 182.966 206.634 183.044 206.509 183.126Z" fill="#ECF1F4"/>
<path d="M206.588 183.296C213.95 182.811 221.278 184.658 227.53 188.577C228.891 189.397 230.114 190.426 231.155 191.626C232.131 192.829 232.767 194.271 232.998 195.802C233.241 197.226 233.326 198.711 233.911 200.051C234.221 200.732 234.671 201.34 235.232 201.835C235.793 202.33 236.453 202.701 237.167 202.923C238.933 203.523 240.809 203.453 242.642 203.32C244.676 203.172 246.787 202.987 248.725 203.763C248.96 203.857 249.092 203.487 248.858 203.393C245.485 202.043 241.838 203.494 238.367 202.832C236.747 202.524 235.21 201.725 234.425 200.215C233.738 198.894 233.65 197.364 233.416 195.92C233.213 194.422 232.646 192.997 231.766 191.769C230.79 190.52 229.608 189.445 228.271 188.592C225.293 186.623 222.024 185.135 218.583 184.182C214.663 183.072 210.581 182.642 206.516 182.909C206.264 182.926 206.338 183.312 206.588 183.296Z" fill="#ECF1F4"/>
<path d="M225.591 187.197C226.106 186.058 226.199 184.773 225.854 183.572C225.51 182.371 224.75 181.331 223.71 180.639C223.499 180.5 223.272 180.821 223.483 180.961C224.453 181.603 225.161 182.572 225.48 183.691C225.799 184.81 225.707 186.007 225.221 187.064C225.116 187.294 225.486 187.425 225.591 187.197Z" fill="#ECF1F4"/>
<path d="M232.969 195.064C230.588 195.987 227.947 195.978 225.572 195.039C225.337 194.946 225.204 195.316 225.439 195.409C227.913 196.382 230.661 196.385 233.137 195.419C233.373 195.327 233.204 194.972 232.969 195.064Z" fill="#ECF1F4"/>
<path d="M214.732 183.588C214.624 184.071 214.399 184.518 214.076 184.892C213.753 185.265 213.342 185.553 212.88 185.728C212.643 185.817 212.813 186.172 213.048 186.083C213.557 185.887 214.01 185.569 214.368 185.158C214.726 184.746 214.978 184.253 215.102 183.721C215.117 183.672 215.114 183.619 215.092 183.572C215.07 183.525 215.031 183.489 214.983 183.47C214.934 183.452 214.88 183.455 214.833 183.477C214.786 183.5 214.749 183.54 214.732 183.588Z" fill="#ECF1F4"/>
<path d="M182.019 205.198C183.843 205.198 185.322 203.719 185.322 201.894C185.322 200.069 183.843 198.59 182.019 198.59C180.195 198.59 178.717 200.069 178.717 201.894C178.717 203.719 180.195 205.198 182.019 205.198Z" fill="#FD6584"/>
<path d="M193.717 148.925C195.541 148.925 197.02 147.446 197.02 145.622C197.02 143.797 195.541 142.318 193.717 142.318C191.893 142.318 190.415 143.797 190.415 145.622C190.415 147.446 191.893 148.925 193.717 148.925Z" fill="#ECF1F4"/>
<path d="M132.265 57.2823C134.089 57.2823 135.567 55.8031 135.567 53.9784C135.567 52.1538 134.089 50.6746 132.265 50.6746C130.441 50.6746 128.962 52.1538 128.962 53.9784C128.962 55.8031 130.441 57.2823 132.265 57.2823Z" fill="#ECF1F4"/>
<path d="M63.0584 180.715C63.0584 181.556 63.0861 182.397 63.1449 183.231C63.2071 184.227 63.3144 185.217 63.4597 186.2C63.948 189.51 64.8813 192.738 66.2343 195.798C66.3035 195.95 66.3727 196.102 66.4419 196.254L66.5457 196.483C66.5803 196.559 66.6183 196.635 66.6529 196.708C66.7013 196.808 66.7463 196.905 66.7948 197.002C66.8536 197.123 66.9124 197.244 66.9746 197.365C66.9816 197.379 66.9885 197.397 66.9989 197.414C67.0508 197.518 67.0992 197.618 67.1546 197.722C67.1647 197.744 67.1763 197.766 67.1892 197.788C67.248 197.905 67.3102 198.026 67.3725 198.144C67.4417 198.269 67.5074 198.397 67.5766 198.521C67.7427 198.829 67.9157 199.134 68.0921 199.439C68.144 199.529 68.1959 199.619 68.2512 199.708C68.2997 199.792 68.3481 199.875 68.4 199.958C68.4346 200.013 68.4692 200.072 68.5038 200.127C68.5591 200.221 68.6145 200.311 68.6733 200.404C68.8013 200.608 68.9328 200.813 69.0608 201.017H69.0642C69.1231 201.11 69.1853 201.204 69.2476 201.294V201.297C69.431 201.574 69.6212 201.851 69.8115 202.124L69.8129 202.125L69.814 202.125L69.8147 202.126L69.815 202.128C69.9672 202.349 70.1263 202.564 70.282 202.778V202.782C70.3858 202.917 70.4861 203.055 70.5899 203.19C70.673 203.301 70.7595 203.415 70.8459 203.526C70.8632 203.55 70.884 203.571 70.9013 203.595V203.599C70.9255 203.63 70.9497 203.657 70.9739 203.689C71.3407 204.159 71.7189 204.62 72.1087 205.07L72.171 205.142C72.1917 205.166 72.216 205.191 72.2367 205.218C72.2713 205.256 72.3024 205.295 72.337 205.333C72.3682 205.371 72.4028 205.409 72.4374 205.447C74.4692 207.737 76.7731 209.769 79.2978 211.5C79.6333 211.732 79.9758 211.957 80.3183 212.175C80.4048 212.23 80.4913 212.286 80.5778 212.338C80.602 212.355 80.6297 212.372 80.6539 212.39C80.7023 212.417 80.7473 212.445 80.7958 212.476C80.8407 212.504 80.8857 212.531 80.9341 212.559C81.1175 212.673 81.3043 212.784 81.4911 212.895C81.5361 212.923 81.5846 212.95 81.633 212.978C81.678 213.002 81.7264 213.03 81.7748 213.058C81.7748 213.061 81.7748 213.061 81.7783 213.061H81.7817V213.065H81.7852C82.017 213.199 82.2523 213.331 82.491 213.459C82.619 213.528 82.7504 213.601 82.8819 213.667C83.1794 213.829 83.4804 213.985 83.7814 214.134C83.8886 214.186 83.9994 214.238 84.1066 214.293C84.1965 214.335 84.2865 214.38 84.3764 214.421C84.4041 214.435 84.4283 214.445 84.4526 214.459C84.5287 214.494 84.6013 214.528 84.6774 214.563C84.7605 214.601 84.8435 214.639 84.9231 214.677C85.0165 214.719 85.1064 214.76 85.1998 214.798C85.5458 214.954 85.8952 215.103 86.2446 215.245C87.4969 215.758 88.7766 216.202 90.0779 216.574C90.1367 216.591 90.1989 216.609 90.2612 216.626C90.8182 216.782 91.3787 216.923 91.9426 217.052C92.9286 217.28 93.9238 217.467 94.9282 217.612H94.9352C95.0563 217.63 95.1739 217.647 95.295 217.664C95.3053 217.664 95.3157 217.668 95.3296 217.668C95.3296 217.671 95.3296 217.671 95.333 217.668C95.4645 217.685 95.5994 217.702 95.7309 217.72C95.7398 217.722 95.7492 217.723 95.7586 217.723C95.8831 217.74 96.0111 217.754 96.1357 217.768C96.2706 217.782 96.4055 217.796 96.5404 217.81C96.6442 217.82 96.748 217.83 96.8518 217.841C96.8607 217.844 96.8701 217.845 96.8795 217.844C96.9729 217.851 97.0663 217.861 97.1597 217.868H97.1735C97.2531 217.875 97.3361 217.882 97.4157 217.889C98.3809 217.965 99.3496 218 100.332 218C101.394 218 102.449 217.958 103.491 217.868H103.501C103.726 217.848 103.947 217.827 104.169 217.806C104.228 217.799 104.283 217.796 104.342 217.789C104.352 217.789 104.366 217.785 104.376 217.785C104.394 217.782 104.411 217.782 104.432 217.778C104.441 217.779 104.45 217.778 104.459 217.775C104.536 217.768 104.612 217.758 104.691 217.751L104.951 217.72C105.037 217.709 105.124 217.695 105.21 217.685C105.231 217.681 105.248 217.681 105.269 217.678C105.331 217.671 105.394 217.661 105.456 217.65C105.487 217.647 105.518 217.643 105.546 217.64C105.608 217.63 105.667 217.623 105.729 217.612H105.733C107.631 217.339 109.505 216.916 111.337 216.349C111.434 216.318 111.531 216.29 111.628 216.259C111.631 216.259 111.635 216.256 111.638 216.256C111.666 216.245 111.697 216.238 111.725 216.228C111.984 216.145 112.24 216.058 112.496 215.968C112.849 215.851 113.198 215.723 113.548 215.591C113.641 215.553 113.735 215.518 113.828 215.48C114.018 215.408 114.205 215.331 114.392 215.255C114.71 215.127 115.029 214.992 115.343 214.854C115.637 214.722 115.928 214.591 116.219 214.452C116.226 214.449 116.236 214.449 116.243 214.442C116.309 214.411 116.374 214.38 116.437 214.349H116.44C118.033 213.584 119.57 212.706 121.038 211.722C121.508 211.407 121.972 211.081 122.429 210.746C122.795 210.472 123.155 210.195 123.515 209.912C125.29 208.499 126.933 206.928 128.424 205.218V205.215C128.531 205.097 128.632 204.976 128.735 204.855C128.753 204.838 128.767 204.82 128.78 204.807C128.846 204.727 128.908 204.651 128.974 204.575V204.571C129.061 204.471 129.147 204.367 129.23 204.263C129.251 204.239 129.268 204.218 129.286 204.197V204.194C129.355 204.111 129.42 204.028 129.49 203.941C129.524 203.9 129.555 203.858 129.59 203.817V203.813C129.794 203.557 129.991 203.301 130.188 203.038C130.24 202.969 130.292 202.896 130.348 202.823C130.597 202.488 130.839 202.145 131.074 201.802V201.799C131.164 201.671 131.251 201.539 131.341 201.411C131.427 201.28 131.514 201.148 131.6 201.017C131.687 200.878 131.776 200.743 131.863 200.605L131.873 200.584C131.96 200.453 132.046 200.314 132.129 200.179C132.195 200.068 132.261 199.961 132.327 199.854C132.368 199.781 132.413 199.709 132.455 199.632C132.471 199.609 132.486 199.585 132.5 199.56C132.596 199.39 132.693 199.221 132.79 199.051C132.904 198.854 133.015 198.653 133.126 198.452C133.167 198.369 133.212 198.286 133.257 198.203C133.274 198.175 133.288 198.148 133.302 198.12C133.354 198.023 133.406 197.923 133.454 197.822C133.506 197.725 133.558 197.625 133.61 197.525C133.658 197.428 133.71 197.327 133.759 197.227C133.797 197.151 133.831 197.075 133.87 196.999C133.872 196.992 133.876 196.987 133.88 196.981C133.897 196.943 133.914 196.909 133.928 196.874C133.933 196.869 133.936 196.863 133.939 196.857C133.977 196.781 134.011 196.701 134.049 196.625C134.098 196.524 134.143 196.421 134.191 196.32C134.222 196.251 134.257 196.178 134.288 196.106C134.333 196.005 134.382 195.905 134.423 195.801C134.471 195.697 134.516 195.593 134.561 195.486C134.574 195.46 134.586 195.434 134.596 195.407C134.62 195.358 134.638 195.31 134.658 195.261C134.714 195.133 134.769 195.002 134.821 194.874C134.883 194.728 134.942 194.579 134.997 194.434C135.053 194.299 135.105 194.161 135.156 194.022L135.177 193.974C135.983 191.85 136.595 189.657 137.004 187.422V187.419C137.235 186.143 137.4 184.856 137.499 183.563C137.502 183.49 137.509 183.421 137.512 183.352C137.575 182.476 137.602 181.597 137.602 180.715C137.602 180.323 137.595 179.936 137.585 179.548C137.344 171.441 134.454 163.637 129.358 157.329C129.247 157.19 129.137 157.052 129.023 156.913C128.908 156.775 128.791 156.64 128.677 156.505C124.884 152.062 120.101 148.572 114.713 146.318C109.325 144.063 103.483 143.106 97.6577 143.525C91.8324 143.944 86.187 145.726 81.1764 148.728C76.1659 151.729 71.9305 155.867 68.8117 160.807C68.6422 161.077 68.4727 161.35 68.3101 161.624C68.144 161.901 67.9849 162.177 67.8257 162.458C64.6916 168.031 63.0494 174.32 63.0584 180.715Z" fill="#ECF1F4"/>
<path d="M98.8507 156.326C104.98 157.9 111.26 158.807 117.584 159.031C118.54 159.083 119.499 159.077 120.454 159.012C122.554 158.835 124.352 158.175 126.355 157.814C127.318 157.641 128.391 157.515 129.36 157.328C129.136 157.05 128.908 156.775 128.676 156.504C126.586 156.681 124.463 157.259 122.347 157.528C118.751 157.985 114.722 157.475 111.996 156.216C110.673 155.605 109.66 154.842 108.342 154.229C108.163 154.137 107.969 154.077 107.769 154.053C107.389 154.041 107.013 154.139 106.687 154.334C104.476 155.45 101.265 156.358 98.2856 155.859C98.0635 156.033 98.4855 156.231 98.8507 156.326Z" fill="#ECF1F4"/>
<path d="M85.6646 160.256C85.6373 160.251 85.6101 160.247 85.5828 160.243C85.6973 160.172 85.8051 160.091 85.9049 160L85.6646 160.256Z" fill="#ECF1F4"/>
<path d="M67.8265 162.459C69.071 162.559 70.3221 162.633 71.5796 162.682C72.5358 162.733 73.4943 162.727 74.4498 162.662C76.5494 162.484 78.3479 161.825 80.3509 161.464C82.1865 161.134 84.4172 160.975 85.5828 160.243C82.5704 159.721 79.4493 160.783 76.3431 161.178C73.8305 161.487 71.2835 161.361 68.8136 160.806C68.4697 161.347 68.1406 161.898 67.8265 162.459Z" fill="#ECF1F4"/>
<path d="M82.882 213.667C83.1795 213.829 83.4805 213.985 83.7815 214.134C83.8887 214.186 83.9994 214.238 84.1067 214.293C84.1966 214.335 84.2866 214.38 84.3765 214.421C84.4042 214.435 84.4284 214.445 84.4526 214.459C84.5287 214.494 84.6014 214.529 84.6775 214.563C84.7605 214.601 84.8436 214.639 84.9231 214.677C85.0165 214.719 85.1065 214.76 85.1999 214.799C85.5459 214.954 85.8953 215.103 86.2447 215.245C87.4969 215.758 88.7766 216.202 90.0779 216.574C90.1367 216.591 90.199 216.609 90.2613 216.626C90.8183 216.782 91.3788 216.924 91.9427 217.052C92.9287 217.28 93.9239 217.467 94.9283 217.612H94.9352C95.0563 217.63 95.1739 217.647 95.295 217.664C95.3054 217.664 95.3158 217.668 95.3296 217.668C95.3296 217.671 95.3296 217.671 95.3331 217.668C95.4645 217.685 95.5995 217.702 95.7309 217.72C95.7399 217.722 95.7493 217.723 95.7586 217.723C95.8832 217.74 96.0112 217.754 96.1357 217.768C96.2706 217.782 96.4056 217.796 96.5405 217.81C96.6443 217.82 96.7481 217.83 96.8519 217.841C96.8607 217.844 96.8702 217.845 96.8795 217.844C96.9729 217.851 97.0663 217.861 97.1597 217.868H97.1736C97.2532 217.875 97.3362 217.882 97.4158 217.889C98.381 217.965 99.3497 218 100.332 218C101.394 218 102.449 217.958 103.491 217.868H103.501C103.726 217.848 103.947 217.827 104.169 217.806C104.228 217.799 104.283 217.796 104.342 217.789C104.352 217.789 104.366 217.785 104.376 217.785C104.394 217.782 104.411 217.782 104.432 217.778C104.441 217.779 104.451 217.778 104.46 217.775C104.536 217.768 104.612 217.758 104.691 217.751L104.951 217.72C105.037 217.709 105.124 217.695 105.21 217.685C105.231 217.682 105.248 217.682 105.269 217.678C105.331 217.671 105.394 217.661 105.456 217.65C105.487 217.647 105.518 217.643 105.546 217.64C105.608 217.63 105.667 217.623 105.729 217.612H105.733C107.631 217.339 109.505 216.917 111.337 216.349C111.434 216.318 111.531 216.29 111.628 216.259C111.181 214.175 110.261 212.222 108.94 210.55C107.618 208.878 105.93 207.532 104.006 206.617C104.482 206.163 104.811 205.577 104.951 204.935C105.041 204.52 105.048 204.093 104.972 203.676C104.896 203.259 104.738 202.861 104.508 202.505C104.059 201.815 103.355 201.332 102.55 201.162L97.4227 200.089C96.5973 199.928 95.7418 200.1 95.0421 200.566C94.3425 201.033 93.8552 201.757 93.6863 202.581C93.634 202.834 93.6108 203.092 93.6171 203.35C88.6803 206.637 85.1272 210.047 82.882 213.667Z" fill="#FF5757"/>
<path d="M98.0208 198.063C103.92 198.063 108.702 193.279 108.702 187.377C108.702 181.476 103.92 176.691 98.0208 176.691C92.1214 176.691 87.3391 181.476 87.3391 187.377C87.3391 193.279 92.1214 198.063 98.0208 198.063Z" fill="#FFB8B8"/>
<path d="M91.3627 196.591C90.2236 195.812 89.0604 194.316 88.2838 193.195C87.2548 191.722 86.5468 190.048 86.2056 188.283C85.8644 186.518 85.8977 184.701 86.3033 182.95C86.4327 182.25 86.7506 181.598 87.2228 181.066C87.7259 180.568 88.5476 180.332 89.1616 180.684C88.9941 180.235 88.9202 179.756 88.9447 179.278C88.9692 178.799 89.0915 178.331 89.304 177.901C89.7356 177.044 90.3609 176.299 91.1304 175.725C92.6021 174.591 94.3532 173.877 96.1978 173.659C98.0424 173.44 99.9117 173.726 101.607 174.484C102.275 174.793 101.179 172.405 101.877 172.635C102.571 172.904 103.342 172.89 104.026 172.597C104.683 172.266 106.86 174.232 106.608 173.541C107.107 173.767 107.54 174.116 107.867 174.555C108.194 174.994 108.405 175.508 108.48 176.051C108.555 176.593 108.492 177.146 108.296 177.657C108.1 178.169 107.778 178.622 107.359 178.975C106.808 179.441 106.12 179.709 105.516 180.104C104.459 180.849 103.71 181.955 103.412 183.213C103.114 184.472 103.286 185.796 103.898 186.936C103.262 186.528 102.566 186.225 101.834 186.039C101.467 185.95 101.084 185.949 100.716 186.038C100.349 186.126 100.008 186.301 99.722 186.548C99.4829 186.821 99.3022 187.141 99.1911 187.487C99.0801 187.833 99.0409 188.199 99.076 188.56C99.1 189.286 99.2724 190 99.2918 190.725C99.3486 192.854 100.488 196.9 98.8385 198.031C97.5368 198.924 92.918 197.653 91.3627 196.591Z" fill="#2F2E41"/>
<path d="M280.149 12.9096H0.850645C0.756955 12.9075 0.667803 12.8688 0.602277 12.8018C0.536751 12.7348 0.500061 12.6447 0.500061 12.551C0.500061 12.4572 0.536751 12.3672 0.602277 12.3002C0.667803 12.2332 0.756955 12.1945 0.850645 12.1924H280.149C280.243 12.1945 280.332 12.2332 280.398 12.3002C280.463 12.3672 280.5 12.4572 280.5 12.551C280.5 12.6447 280.463 12.7348 280.398 12.8018C280.332 12.8688 280.243 12.9075 280.149 12.9096Z" fill="#CACACA"/>
<path d="M8.74275 7.88912C10.8729 7.88912 12.5998 6.12308 12.5998 3.94456C12.5998 1.76604 10.8729 0 8.74275 0C6.61258 0 4.88574 1.76604 4.88574 3.94456C4.88574 6.12308 6.61258 7.88912 8.74275 7.88912Z" fill="#FF5757"/>
<path d="M22.067 7.88912C24.1971 7.88912 25.924 6.12308 25.924 3.94456C25.924 1.76604 24.1971 0 22.067 0C19.9368 0 18.21 1.76604 18.21 3.94456C18.21 6.12308 19.9368 7.88912 22.067 7.88912Z" fill="#E0B034"/>
<path d="M35.3912 7.88912C37.5214 7.88912 39.2482 6.12308 39.2482 3.94456C39.2482 1.76604 37.5214 0 35.3912 0C33.261 0 31.5342 1.76604 31.5342 3.94456C31.5342 6.12308 33.261 7.88912 35.3912 7.88912Z" fill="#31D0AA"/>
<path d="M272.166 2.41266H262.699C262.512 2.40852 262.333 2.33114 262.202 2.19709C262.071 2.06304 261.998 1.88298 261.998 1.69546C261.998 1.50795 262.071 1.32789 262.202 1.19384C262.333 1.05979 262.512 0.982411 262.699 0.978271H272.166C272.354 0.982411 272.532 1.05979 272.663 1.19384C272.794 1.32789 272.867 1.50795 272.867 1.69546C272.867 1.88298 272.794 2.06304 272.663 2.19709C272.532 2.33114 272.354 2.40852 272.166 2.41266Z" fill="#ECF1F4"/>
<path d="M272.166 5.10235H262.699C262.512 5.09824 262.333 5.02086 262.202 4.88681C262.071 4.75276 261.998 4.57269 261.998 4.38516C261.998 4.19763 262.071 4.01756 262.202 3.88351C262.333 3.74946 262.512 3.67209 262.699 3.66797H272.166C272.354 3.67209 272.532 3.74946 272.663 3.88351C272.794 4.01756 272.867 4.19763 272.867 4.38516C272.867 4.57269 272.794 4.75276 272.663 4.88681C272.532 5.02086 272.354 5.09824 272.166 5.10235Z" fill="#ECF1F4"/>
<path d="M272.166 7.79181H262.699C262.512 7.78769 262.333 7.71032 262.202 7.57627C262.071 7.44222 261.998 7.26214 261.998 7.07461C261.998 6.88708 262.071 6.70701 262.202 6.57296C262.333 6.43891 262.512 6.36154 262.699 6.35742H272.166C272.354 6.36154 272.532 6.43891 272.663 6.57296C272.794 6.70701 272.867 6.88708 272.867 7.07461C272.867 7.26214 272.794 7.44222 272.663 7.57627C272.532 7.71032 272.354 7.78769 272.166 7.79181Z" fill="#ECF1F4"/>
<path d="M105.365 133.891C105.14 133.89 104.918 133.845 104.71 133.758C104.401 133.634 104.136 133.419 103.95 133.141C103.765 132.864 103.667 132.537 103.671 132.203V130.511C103.671 130.156 103.53 129.816 103.279 129.565C103.028 129.315 102.688 129.173 102.333 129.173C101.887 129.172 101.459 128.995 101.143 128.679C100.828 128.363 100.65 127.935 100.65 127.489V104.315C100.65 103.869 100.828 103.441 101.143 103.125C101.459 102.809 101.887 102.632 102.333 102.631H179.076C179.523 102.632 179.951 102.809 180.266 103.125C180.582 103.441 180.76 103.869 180.76 104.315V127.489C180.76 127.935 180.582 128.363 180.266 128.679C179.951 128.995 179.523 129.172 179.076 129.173H111.318C111.142 129.173 110.968 129.207 110.806 129.274C110.644 129.341 110.496 129.44 110.372 129.565L106.545 133.393C106.391 133.55 106.208 133.675 106.005 133.761C105.803 133.846 105.585 133.89 105.365 133.891Z" fill="#ECF1F4"/>
<path d="M105.365 134.237C105.095 134.237 104.827 134.183 104.578 134.078C104.204 133.928 103.885 133.669 103.662 133.334C103.438 132.999 103.321 132.605 103.325 132.203V130.511C103.325 130.248 103.22 129.996 103.034 129.81C102.848 129.624 102.596 129.519 102.333 129.519C101.795 129.518 101.279 129.304 100.899 128.924C100.518 128.543 100.304 128.027 100.304 127.488V104.315C100.304 103.777 100.518 103.261 100.899 102.88C101.279 102.5 101.795 102.286 102.333 102.285H179.076C179.615 102.286 180.13 102.5 180.511 102.88C180.891 103.261 181.105 103.777 181.106 104.315V127.488C181.105 128.027 180.891 128.543 180.511 128.924C180.13 129.304 179.615 129.518 179.076 129.519H111.318C111.188 129.519 111.059 129.544 110.938 129.594C110.818 129.644 110.709 129.717 110.617 129.81L106.79 133.638C106.604 133.827 106.382 133.978 106.138 134.08C105.893 134.183 105.631 134.236 105.365 134.237ZM102.333 102.977C101.979 102.978 101.639 103.119 101.388 103.37C101.137 103.62 100.996 103.961 100.996 104.315V127.488C100.996 127.843 101.137 128.183 101.388 128.434C101.639 128.685 101.979 128.826 102.333 128.827C102.78 128.827 103.208 129.005 103.523 129.321C103.839 129.637 104.016 130.065 104.017 130.511V132.203C104.017 132.467 104.095 132.726 104.242 132.946C104.39 133.166 104.598 133.337 104.843 133.439C105.087 133.54 105.356 133.566 105.616 133.515C105.875 133.463 106.113 133.336 106.3 133.149L110.128 129.32C110.284 129.163 110.469 129.039 110.674 128.954C110.878 128.869 111.097 128.826 111.318 128.827H179.076C179.431 128.826 179.771 128.685 180.022 128.434C180.273 128.183 180.414 127.843 180.414 127.488V104.315C180.414 103.961 180.273 103.62 180.022 103.369C179.771 103.119 179.431 102.977 179.076 102.977L102.333 102.977Z" fill="#3F3D56"/>
<path d="M172.482 113.122H110.251C110.013 113.122 109.785 113.028 109.617 112.86C109.449 112.691 109.355 112.463 109.355 112.226C109.355 111.988 109.449 111.76 109.617 111.591C109.785 111.423 110.013 111.329 110.251 111.329H172.482C172.719 111.329 172.947 111.423 173.115 111.591C173.284 111.76 173.378 111.988 173.378 112.226C173.378 112.463 173.284 112.691 173.115 112.86C172.947 113.028 172.719 113.122 172.482 113.122Z" fill="#FF5757"/>
<path d="M172.367 116.932H110.251C110.013 116.932 109.785 116.837 109.617 116.669C109.449 116.501 109.355 116.273 109.355 116.035C109.355 115.797 109.449 115.569 109.617 115.401C109.785 115.233 110.013 115.138 110.251 115.138H172.367C172.605 115.138 172.833 115.233 173.001 115.401C173.169 115.569 173.264 115.797 173.264 116.035C173.264 116.273 173.169 116.501 173.001 116.669C172.833 116.837 172.605 116.932 172.367 116.932Z" fill="#ECF1F4"/>
<path d="M172.305 120.741H110.251C110.013 120.741 109.785 120.646 109.617 120.478C109.449 120.31 109.355 120.082 109.355 119.844C109.355 119.606 109.449 119.378 109.617 119.21C109.785 119.042 110.013 118.948 110.251 118.948H172.305C172.543 118.948 172.771 119.042 172.939 119.21C173.107 119.378 173.202 119.606 173.202 119.844C173.202 120.082 173.107 120.31 172.939 120.478C172.771 120.646 172.543 120.741 172.305 120.741Z" fill="#ECF1F4"/>
<path d="M270.482 99.0351C270.482 99.8761 270.455 100.717 270.396 101.551C270.334 102.548 270.226 103.538 270.081 104.521C269.593 107.83 268.659 111.059 267.306 114.118C267.237 114.27 267.168 114.423 267.099 114.575L266.995 114.803C266.96 114.88 266.922 114.956 266.888 115.028C266.839 115.129 266.794 115.226 266.746 115.323C266.687 115.444 266.628 115.565 266.566 115.686C266.559 115.7 266.552 115.717 266.542 115.734C266.49 115.838 266.441 115.939 266.386 116.042C266.376 116.065 266.364 116.087 266.352 116.108C266.293 116.226 266.23 116.347 266.168 116.465C266.099 116.589 266.033 116.717 265.964 116.842C265.798 117.15 265.625 117.455 265.449 117.759C265.397 117.849 265.345 117.939 265.289 118.029C265.241 118.112 265.193 118.195 265.141 118.278C265.106 118.334 265.071 118.392 265.037 118.448C264.982 118.541 264.926 118.631 264.867 118.725C264.739 118.929 264.608 119.133 264.48 119.337H264.476C264.418 119.431 264.355 119.524 264.293 119.614V119.618C264.11 119.895 263.919 120.171 263.729 120.445C263.729 120.445 263.728 120.445 263.728 120.445C263.727 120.445 263.727 120.445 263.727 120.446C263.726 120.446 263.726 120.447 263.726 120.447C263.726 120.447 263.726 120.448 263.726 120.448C263.573 120.67 263.414 120.884 263.259 121.099V121.102C263.155 121.237 263.055 121.376 262.951 121.511C262.868 121.622 262.781 121.736 262.695 121.847C262.677 121.871 262.657 121.891 262.639 121.916V121.919C262.615 121.95 262.591 121.978 262.567 122.009C262.2 122.48 261.822 122.94 261.432 123.39L261.37 123.463C261.349 123.487 261.325 123.511 261.304 123.539C261.269 123.577 261.238 123.615 261.204 123.653C261.172 123.691 261.138 123.729 261.103 123.767C259.071 126.057 256.768 128.09 254.243 129.821C253.907 130.053 253.565 130.278 253.222 130.496C253.136 130.551 253.049 130.606 252.963 130.658C252.939 130.676 252.911 130.693 252.887 130.71C252.838 130.738 252.793 130.766 252.745 130.797C252.7 130.824 252.655 130.852 252.607 130.88C252.423 130.994 252.236 131.105 252.05 131.215C252.005 131.243 251.956 131.271 251.908 131.299C251.863 131.323 251.814 131.35 251.766 131.378C251.766 131.382 251.766 131.382 251.762 131.382H251.759V131.385H251.755C251.524 131.52 251.288 131.652 251.05 131.78C250.922 131.849 250.79 131.922 250.659 131.987C250.361 132.15 250.06 132.306 249.759 132.454C249.652 132.506 249.541 132.558 249.434 132.614C249.344 132.655 249.254 132.7 249.164 132.742C249.137 132.756 249.112 132.766 249.088 132.78C249.012 132.814 248.939 132.849 248.863 132.884C248.78 132.922 248.697 132.96 248.618 132.998C248.524 133.039 248.434 133.081 248.341 133.119C247.995 133.275 247.645 133.424 247.296 133.565C246.044 134.079 244.764 134.523 243.463 134.895C243.404 134.912 243.342 134.929 243.279 134.946C242.722 135.102 242.162 135.244 241.598 135.372C240.612 135.601 239.617 135.787 238.612 135.933H238.606C238.484 135.95 238.367 135.967 238.246 135.985C238.235 135.985 238.225 135.988 238.211 135.988C238.211 135.992 238.211 135.992 238.208 135.988C238.076 136.005 237.941 136.023 237.81 136.04C237.801 136.043 237.791 136.044 237.782 136.044C237.658 136.061 237.53 136.075 237.405 136.089C237.27 136.102 237.135 136.116 237 136.13C236.896 136.14 236.793 136.151 236.689 136.161C236.68 136.164 236.671 136.165 236.661 136.165C236.568 136.172 236.474 136.182 236.381 136.189H236.367C236.288 136.196 236.205 136.203 236.125 136.21C235.16 136.286 234.191 136.32 233.209 136.32C232.146 136.32 231.091 136.279 230.05 136.189H230.04C229.815 136.168 229.593 136.147 229.372 136.127C229.313 136.12 229.258 136.116 229.199 136.109C229.188 136.109 229.175 136.106 229.164 136.106C229.147 136.102 229.13 136.102 229.109 136.099C229.1 136.099 229.09 136.098 229.081 136.095C229.005 136.089 228.929 136.078 228.849 136.071L228.59 136.04C228.503 136.03 228.417 136.016 228.33 136.005C228.31 136.002 228.292 136.002 228.272 135.999C228.209 135.992 228.147 135.981 228.085 135.971C228.054 135.967 228.023 135.964 227.995 135.961C227.933 135.95 227.874 135.943 227.812 135.933H227.808C225.91 135.659 224.036 135.237 222.204 134.67C222.107 134.638 222.01 134.611 221.913 134.58C221.909 134.58 221.906 134.576 221.903 134.576C221.875 134.566 221.844 134.559 221.816 134.548C221.557 134.465 221.301 134.379 221.045 134.289C220.692 134.171 220.342 134.043 219.993 133.912C219.899 133.874 219.806 133.839 219.713 133.801C219.522 133.728 219.336 133.652 219.149 133.576C218.83 133.448 218.512 133.313 218.197 133.174C217.903 133.043 217.613 132.911 217.322 132.773C217.315 132.769 217.305 132.769 217.298 132.763C217.232 132.731 217.166 132.7 217.104 132.669H217.101C215.507 131.904 213.971 131.026 212.503 130.042C212.032 129.727 211.569 129.402 211.112 129.066C210.745 128.793 210.386 128.516 210.026 128.232C208.251 126.82 206.608 125.249 205.117 123.539V123.536C205.009 123.418 204.909 123.297 204.805 123.176C204.788 123.158 204.774 123.141 204.76 123.127C204.694 123.048 204.632 122.971 204.566 122.895V122.892C204.48 122.791 204.394 122.688 204.31 122.584C204.29 122.56 204.272 122.539 204.255 122.518V122.515C204.186 122.431 204.12 122.348 204.051 122.262C204.016 122.22 203.985 122.179 203.951 122.137V122.134C203.747 121.878 203.549 121.622 203.352 121.359C203.3 121.289 203.248 121.217 203.193 121.144C202.944 120.808 202.702 120.466 202.466 120.123V120.12C202.377 119.991 202.29 119.86 202.2 119.732C202.114 119.6 202.027 119.469 201.941 119.337C201.854 119.199 201.764 119.064 201.678 118.925L201.667 118.905C201.581 118.773 201.494 118.635 201.411 118.5C201.346 118.389 201.28 118.282 201.214 118.174C201.173 118.102 201.128 118.029 201.086 117.953C201.07 117.93 201.055 117.905 201.041 117.88C200.944 117.711 200.847 117.541 200.751 117.371C200.636 117.174 200.526 116.973 200.415 116.773C200.373 116.69 200.328 116.607 200.283 116.524C200.266 116.496 200.252 116.468 200.239 116.44C200.187 116.344 200.135 116.243 200.086 116.143C200.034 116.046 199.982 115.946 199.931 115.845C199.882 115.748 199.83 115.648 199.782 115.548C199.744 115.471 199.709 115.395 199.671 115.319C199.668 115.313 199.665 115.307 199.661 115.302C199.643 115.264 199.626 115.229 199.612 115.195C199.608 115.189 199.605 115.183 199.602 115.177C199.564 115.101 199.529 115.021 199.491 114.945C199.443 114.845 199.398 114.741 199.349 114.641C199.318 114.572 199.284 114.499 199.253 114.426C199.208 114.326 199.159 114.225 199.118 114.122C199.069 114.018 199.024 113.914 198.979 113.807C198.966 113.781 198.955 113.754 198.945 113.727C198.92 113.679 198.903 113.63 198.882 113.582C198.827 113.454 198.772 113.322 198.72 113.194C198.657 113.049 198.599 112.9 198.543 112.755C198.488 112.62 198.436 112.481 198.384 112.343L198.363 112.294C197.557 110.17 196.946 107.977 196.537 105.743V105.739C196.306 104.463 196.141 103.176 196.042 101.884C196.039 101.811 196.032 101.742 196.028 101.672C195.966 100.797 195.938 99.9177 195.938 99.0351C195.938 98.644 195.945 98.2564 195.956 97.8688C196.197 89.7618 199.087 81.9573 204.182 75.6491C204.293 75.5107 204.404 75.3722 204.518 75.2338C204.632 75.0954 204.75 74.9604 204.864 74.8254C208.657 70.3822 213.44 66.8927 218.828 64.6381C224.216 62.3835 230.058 61.427 235.883 61.8456C241.708 62.2642 247.354 64.0463 252.364 67.0481C257.375 70.05 261.61 74.1876 264.729 79.1274C264.898 79.3974 265.068 79.6708 265.231 79.9442C265.397 80.2211 265.556 80.498 265.715 80.7783C268.849 86.3517 270.491 92.6403 270.482 99.0351Z" fill="#ECF1F4"/>
<path d="M234.69 74.6466C228.561 76.2199 222.28 77.1268 215.957 77.3515C215.001 77.4036 214.042 77.3971 213.087 77.332C210.987 77.1553 209.189 76.4951 207.186 76.1344C206.223 75.9614 205.15 75.835 204.181 75.6481C204.405 75.37 204.633 75.0954 204.865 74.8242C206.955 75.0009 209.078 75.5793 211.193 75.848C214.789 76.3055 218.819 75.795 221.545 74.536C222.867 73.9251 223.88 73.1626 225.198 72.5489C225.378 72.4569 225.572 72.3974 225.772 72.3732C226.152 72.3618 226.527 72.4592 226.854 72.654C229.065 73.7707 232.275 74.6783 235.255 74.1789C235.477 74.3528 235.055 74.5509 234.69 74.6466Z" fill="#ECF1F4"/>
<path d="M247.876 78.5766C247.903 78.5716 247.931 78.5677 247.958 78.563C247.843 78.4921 247.736 78.4108 247.636 78.3203L247.876 78.5766Z" fill="#ECF1F4"/>
<path d="M265.714 80.7799C264.47 80.8793 263.219 80.9534 261.961 81.0021C261.005 81.0537 260.046 81.0472 259.091 80.9826C256.991 80.805 255.193 80.1457 253.19 79.7849C251.354 79.4548 249.123 79.2959 247.958 78.5631C250.97 78.0415 254.091 79.1034 257.198 79.4986C259.71 79.8076 262.257 79.6818 264.727 79.1266C265.071 79.6678 265.4 80.2189 265.714 80.7799Z" fill="#ECF1F4"/>
<path d="M229.007 115.351C235.189 115.351 240.201 110.225 240.201 103.902C240.201 97.5787 235.189 92.4529 229.007 92.4529C222.824 92.4529 217.812 97.5787 217.812 103.902C217.812 110.225 222.824 115.351 229.007 115.351Z" fill="#FFB6B6"/>
<path d="M250.659 131.987C250.361 132.15 250.06 132.306 249.759 132.455C249.652 132.506 249.541 132.558 249.434 132.614C249.344 132.655 249.254 132.7 249.164 132.742C249.137 132.756 249.112 132.766 249.088 132.78C249.012 132.814 248.939 132.849 248.863 132.884C248.78 132.922 248.697 132.96 248.618 132.998C248.524 133.039 248.434 133.081 248.341 133.119C247.995 133.275 247.645 133.424 247.296 133.566C246.044 134.079 244.764 134.523 243.463 134.895C243.404 134.912 243.342 134.929 243.279 134.946C242.722 135.102 242.162 135.244 241.598 135.372C240.612 135.601 239.617 135.788 238.612 135.933H238.605C238.484 135.95 238.367 135.967 238.246 135.985C238.235 135.985 238.225 135.988 238.211 135.988C238.211 135.992 238.211 135.992 238.208 135.988C238.076 136.006 237.941 136.023 237.81 136.04C237.801 136.043 237.791 136.044 237.782 136.044C237.658 136.061 237.53 136.075 237.405 136.089C237.27 136.102 237.135 136.116 237 136.13C236.896 136.141 236.793 136.151 236.689 136.161C236.68 136.164 236.671 136.166 236.661 136.165C236.568 136.172 236.474 136.182 236.381 136.189H236.367C236.288 136.196 236.205 136.203 236.125 136.21C235.16 136.286 234.191 136.32 233.209 136.32C232.146 136.32 231.091 136.279 230.05 136.189H230.04C229.815 136.168 229.593 136.147 229.372 136.127C229.313 136.12 229.258 136.116 229.199 136.109C229.188 136.109 229.175 136.106 229.164 136.106C229.147 136.102 229.13 136.102 229.109 136.099C229.1 136.099 229.09 136.098 229.081 136.096C229.005 136.089 228.929 136.078 228.849 136.071L228.59 136.04C228.503 136.03 228.417 136.016 228.33 136.006C228.31 136.002 228.292 136.002 228.272 135.999C228.209 135.992 228.147 135.981 228.085 135.971C228.054 135.967 228.023 135.964 227.995 135.961C227.933 135.95 227.874 135.943 227.812 135.933H227.808C225.91 135.659 224.036 135.237 222.203 134.67C222.107 134.638 222.01 134.611 221.913 134.58C222.36 132.496 223.279 130.542 224.601 128.87C225.922 127.198 227.61 125.853 229.534 124.937C229.058 124.484 228.729 123.898 228.59 123.255C228.5 122.841 228.493 122.413 228.569 121.996C228.645 121.579 228.803 121.181 229.033 120.826C229.482 120.136 230.186 119.653 230.991 119.483L236.118 118.41C236.943 118.249 237.799 118.42 238.499 118.887C239.198 119.354 239.685 120.078 239.854 120.902C239.907 121.154 239.93 121.412 239.924 121.67C244.86 124.958 248.413 128.367 250.659 131.987Z" fill="#FF5757"/>
<path d="M258.963 98.9365C257.06 96.7165 256.155 93.7712 254.634 91.2504C253.113 88.7295 250.466 86.4733 247.669 87.0599C245.741 87.4643 244.251 89.1662 243.497 91.0635C242.743 92.9608 242.601 95.0532 242.469 97.103C242.516 92.8905 239.742 88.8069 235.92 87.4627C232.099 86.1186 227.526 87.6179 225.125 91.0021C224.077 90.0305 222.709 89.4772 221.281 89.4472C219.852 89.4172 218.462 89.9126 217.375 90.8394C215.227 92.7598 214.752 96.415 216.331 98.8645C217.911 101.314 221.332 102.227 223.842 100.868L224.729 101.685C224.23 103.433 225.198 105.497 226.827 106.155C228.147 106.689 230.011 106.6 230.506 107.986C230.851 108.955 230.206 109.989 229.519 110.733C228.833 111.478 228.017 112.246 227.935 113.276C227.81 114.83 229.416 115.919 230.875 116.247C234.394 117.038 238.299 115.407 240.327 112.301C240.366 112.241 240.408 112.181 240.454 112.121C241.592 110.665 242.421 108.992 242.891 107.205C243.361 105.418 243.462 103.554 243.188 101.726C243.073 101.008 243.188 100.474 243.683 100.304C245.822 99.5689 251.815 101.112 253.628 102.506C255.442 103.9 256.894 105.745 258.641 107.229C260.388 108.713 262.615 109.858 264.833 109.454C266.609 109.13 268.121 107.84 269.137 106.284C270.154 104.728 270.739 102.913 271.263 101.111C267.334 103.381 261.958 102.431 258.963 98.9365Z" fill="#2F2E41"/>
<path d="M29.1543 75.8464C29.1543 76.6874 29.182 77.5284 29.2408 78.3625C29.3031 79.3593 29.4103 80.3491 29.5556 81.332C30.044 84.6416 30.9773 87.87 32.3302 90.9294C32.3994 91.0817 32.4686 91.234 32.5378 91.3863L32.6416 91.6147C32.6762 91.6908 32.7143 91.767 32.7489 91.8396C32.7973 91.94 32.8423 92.0369 32.8907 92.1338C32.9495 92.255 33.0083 92.3761 33.0706 92.4972C33.0775 92.5111 33.0844 92.5284 33.0948 92.5457C33.1467 92.6495 33.1951 92.7499 33.2505 92.8537C33.2607 92.8763 33.2722 92.8983 33.2851 92.9195C33.3439 93.0371 33.4062 93.1583 33.4685 93.276C33.5376 93.4006 33.6034 93.5286 33.6726 93.6532C33.8386 93.9612 34.0116 94.2658 34.188 94.5704C34.2399 94.6604 34.2918 94.7503 34.3472 94.8403C34.3956 94.9234 34.4441 95.0065 34.496 95.0895C34.5306 95.1449 34.5651 95.2037 34.5997 95.2591C34.6551 95.3526 34.7104 95.4425 34.7693 95.536C34.8973 95.7402 35.0287 95.9444 35.1567 96.1486H35.1602C35.219 96.242 35.2813 96.3355 35.3436 96.4255V96.4289C35.5269 96.7058 35.7172 96.9827 35.9075 97.2561C35.9079 97.2561 35.9084 97.2562 35.9088 97.2563C35.9092 97.2565 35.9096 97.2568 35.9099 97.2571C35.9103 97.2574 35.9105 97.2578 35.9107 97.2582C35.9109 97.2586 35.9109 97.2591 35.9109 97.2595C36.0632 97.4811 36.2223 97.6956 36.378 97.9102V97.9137C36.4818 98.0487 36.5821 98.1871 36.6859 98.3221C36.7689 98.4328 36.8554 98.547 36.9419 98.6578C36.9592 98.682 36.9799 98.7028 36.9972 98.727V98.7305C37.0215 98.7616 37.0457 98.7893 37.0699 98.8205C37.4366 99.2912 37.8149 99.7515 38.2047 100.201L38.2669 100.274C38.2877 100.298 38.3119 100.323 38.3327 100.35C38.3673 100.388 38.3984 100.426 38.433 100.464C38.4641 100.503 38.4987 100.541 38.5333 100.579C40.5652 102.868 42.869 104.901 45.3937 106.632C45.7293 106.864 46.0718 107.089 46.4143 107.307C46.5008 107.362 46.5873 107.418 46.6737 107.47C46.698 107.487 46.7256 107.504 46.7499 107.521C46.7983 107.549 46.8433 107.577 46.8917 107.608C46.9367 107.636 46.9817 107.663 47.0301 107.691C47.2134 107.805 47.4003 107.916 47.5871 108.027C47.6321 108.054 47.6805 108.082 47.7289 108.11C47.7739 108.134 47.8223 108.162 47.8708 108.189C47.8708 108.193 47.8708 108.193 47.8742 108.193H47.8777V108.196H47.8811C48.113 108.331 48.3482 108.463 48.5869 108.591C48.7149 108.66 48.8464 108.733 48.9778 108.799C49.2754 108.961 49.5764 109.117 49.8773 109.266C49.9846 109.318 50.0953 109.37 50.2025 109.425C50.2925 109.467 50.3824 109.511 50.4724 109.553C50.5001 109.567 50.5243 109.577 50.5485 109.591C50.6246 109.626 50.6973 109.66 50.7734 109.695C50.8564 109.733 50.9394 109.771 51.019 109.809C51.1124 109.851 51.2024 109.892 51.2958 109.93C51.6417 110.086 51.9912 110.235 52.3406 110.377C53.5928 110.89 54.8725 111.334 56.1738 111.706C56.2326 111.723 56.2949 111.74 56.3572 111.758C56.9142 111.913 57.4747 112.055 58.0386 112.183C59.0245 112.412 60.0198 112.599 61.0242 112.744H61.0311C61.1522 112.761 61.2698 112.779 61.3909 112.796C61.4013 112.796 61.4117 112.799 61.4255 112.799C61.4255 112.803 61.4255 112.803 61.429 112.799C61.5604 112.817 61.6954 112.834 61.8268 112.851C61.8358 112.854 61.8451 112.855 61.8545 112.855C61.979 112.872 62.1071 112.886 62.2316 112.9C62.3665 112.914 62.5014 112.928 62.6364 112.941C62.7402 112.952 62.8439 112.962 62.9477 112.973C62.9566 112.976 62.966 112.977 62.9754 112.976C63.0688 112.983 63.1622 112.993 63.2556 113H63.2695C63.349 113.007 63.4321 113.014 63.5116 113.021C64.4769 113.097 65.4456 113.132 66.4281 113.132C67.4902 113.132 68.5454 113.09 69.5867 113H69.5971C69.822 112.979 70.0434 112.959 70.2648 112.938C70.3236 112.931 70.379 112.928 70.4378 112.921C70.4482 112.921 70.462 112.917 70.4724 112.917C70.4897 112.914 70.507 112.914 70.5277 112.91C70.5371 112.911 70.5464 112.909 70.5554 112.907C70.6315 112.9 70.7076 112.889 70.7872 112.883L71.0467 112.851C71.1331 112.841 71.2196 112.827 71.3061 112.817C71.3269 112.813 71.3442 112.813 71.3649 112.81C71.4272 112.803 71.4895 112.793 71.5518 112.782C71.5829 112.779 71.614 112.775 71.6417 112.772C71.704 112.761 71.7628 112.754 71.8251 112.744H71.8285C73.7269 112.471 75.6009 112.048 77.4331 111.481C77.53 111.45 77.6268 111.422 77.7237 111.391C77.7271 111.391 77.7306 111.387 77.7341 111.387C77.7617 111.377 77.7929 111.37 77.8206 111.36C78.08 111.277 78.336 111.19 78.592 111.1C78.9449 110.982 79.2943 110.854 79.6438 110.723C79.7372 110.685 79.8306 110.65 79.924 110.612C80.1143 110.539 80.3011 110.463 80.4879 110.387C80.8062 110.259 81.1245 110.124 81.4393 109.986C81.7334 109.854 82.024 109.723 82.3146 109.584C82.3215 109.581 82.3319 109.581 82.3388 109.574C82.4045 109.543 82.4703 109.512 82.5325 109.48H82.536C84.1292 108.715 85.6657 107.838 87.1338 106.853C87.6043 106.539 88.0679 106.213 88.5246 105.877C88.8913 105.604 89.2511 105.327 89.6109 105.043C91.3859 103.631 93.029 102.06 94.5201 100.35V100.347C94.6273 100.229 94.7276 100.108 94.8314 99.9868C94.8487 99.9695 94.8625 99.9522 94.8764 99.9384C94.9421 99.8588 95.0044 99.7826 95.0701 99.7065V99.703C95.1566 99.6027 95.2431 99.4988 95.3261 99.395C95.3469 99.3708 95.3642 99.35 95.3815 99.3293V99.3258C95.4507 99.2427 95.5164 99.1597 95.5856 99.0731C95.6202 99.0316 95.6513 98.9901 95.6859 98.9485V98.9451C95.89 98.689 96.0872 98.4328 96.2844 98.1698C96.3363 98.1006 96.3882 98.0279 96.4436 97.9552C96.6927 97.6195 96.9349 97.2769 97.1701 96.9342V96.9308C97.2601 96.8027 97.3465 96.6712 97.4365 96.5432C97.523 96.4116 97.6095 96.2801 97.696 96.1486C97.7824 96.0102 97.8724 95.8752 97.9589 95.7368L97.9693 95.716C98.0558 95.5845 98.1423 95.446 98.2253 95.311C98.291 95.2003 98.3567 95.093 98.4225 94.9857C98.464 94.913 98.509 94.8403 98.5505 94.7642C98.5667 94.7408 98.5817 94.7165 98.5955 94.6915C98.6923 94.5219 98.7892 94.3523 98.8861 94.1828C99.0002 93.9855 99.1109 93.7847 99.2216 93.584C99.2632 93.5009 99.3081 93.4179 99.3531 93.3348C99.3704 93.3071 99.3842 93.2794 99.3981 93.2518C99.45 93.1549 99.5019 93.0545 99.5503 92.9541C99.6022 92.8572 99.6541 92.7568 99.706 92.6565C99.7544 92.5596 99.8063 92.4592 99.8548 92.3588C99.8928 92.2827 99.9274 92.2065 99.9655 92.1304C99.9681 92.1242 99.9716 92.1184 99.9758 92.1131C99.9931 92.075 100.01 92.0404 100.024 92.0058C100.029 92.0005 100.032 91.9947 100.035 91.9885C100.073 91.9123 100.107 91.8327 100.145 91.7566C100.194 91.6562 100.239 91.5524 100.287 91.452C100.318 91.3828 100.353 91.3101 100.384 91.2375C100.429 91.1371 100.477 91.0367 100.519 90.9329C100.567 90.8291 100.612 90.7252 100.657 90.6179C100.67 90.592 100.682 90.5655 100.692 90.5383C100.716 90.4899 100.733 90.4414 100.754 90.393C100.81 90.2649 100.865 90.1334 100.917 90.0053C100.979 89.86 101.038 89.7111 101.093 89.5658C101.149 89.4308 101.201 89.2924 101.252 89.1539L101.273 89.1055C102.079 86.9815 102.691 84.7886 103.1 82.5538V82.5503C103.331 81.2745 103.496 79.9876 103.595 78.6948C103.598 78.6221 103.605 78.5529 103.608 78.4837C103.671 77.608 103.698 76.7289 103.698 75.8464C103.698 75.4553 103.691 75.0677 103.681 74.68C103.44 66.5731 100.55 58.7685 95.4541 52.4604C95.3434 52.322 95.2327 52.1835 95.1186 52.0451C95.0044 51.9066 94.8868 51.7717 94.7726 51.6367C90.9801 47.1935 86.197 43.704 80.8091 41.4494C75.4211 39.1948 69.579 38.2383 63.7537 38.6569C57.9284 39.0755 52.2829 40.8576 47.2724 43.8594C42.2618 46.8612 38.0265 50.9989 34.9077 55.9387C34.7381 56.2087 34.5686 56.4821 34.406 56.7555C34.24 57.0324 34.0808 57.3093 33.9217 57.5896C30.7875 63.1629 29.1454 69.4516 29.1543 75.8464Z" fill="#ECF1F4"/>
<path d="M64.9466 51.4579C71.0755 53.0312 77.3563 53.9381 83.6797 54.1628C84.636 54.2149 85.5945 54.2084 86.5499 54.1433C88.6495 53.9666 90.448 53.3064 92.451 52.9456C93.4139 52.7727 94.4865 52.6462 95.4559 52.4593C95.2319 52.1813 95.0039 51.9067 94.7718 51.6355C92.6815 51.8122 90.5586 52.3905 88.4432 52.6593C84.8471 53.1167 80.8179 52.6063 78.0919 51.3473C76.7693 50.7364 75.7562 49.9739 74.4382 49.3602C74.2589 49.2682 74.0648 49.2087 73.8647 49.1845C73.4847 49.1731 73.1094 49.2705 72.7828 49.4653C70.5717 50.582 67.3613 51.4895 64.3815 50.9902C64.1594 51.1641 64.5813 51.3621 64.9466 51.4579Z" fill="#ECF1F4"/>
<path d="M51.7604 55.3879C51.7332 55.3829 51.7059 55.379 51.6787 55.3743C51.7932 55.3033 51.901 55.2221 52.0007 55.1316L51.7604 55.3879Z" fill="#ECF1F4"/>
<path d="M33.9224 57.5911C35.1669 57.6906 36.4179 57.7647 37.6755 57.8134C38.6317 57.865 39.5902 57.8585 40.5456 57.7938C42.6453 57.6162 44.4438 56.957 46.4467 56.5962C48.2824 56.2661 50.5131 56.1071 51.6786 55.3744C48.6663 54.8528 45.5452 55.9147 42.4389 56.3098C39.9264 56.6189 37.3794 56.4931 34.9094 55.9379C34.5655 56.4791 34.2365 57.0301 33.9224 57.5911Z" fill="#ECF1F4"/>
<path d="M48.9778 108.799C49.2754 108.961 49.5764 109.117 49.8773 109.266C49.9846 109.318 50.0953 109.37 50.2025 109.425C50.2925 109.467 50.3824 109.512 50.4724 109.553C50.5001 109.567 50.5243 109.577 50.5485 109.591C50.6246 109.626 50.6973 109.66 50.7734 109.695C50.8564 109.733 50.9394 109.771 51.019 109.809C51.1124 109.851 51.2024 109.892 51.2958 109.93C51.6417 110.086 51.9912 110.235 52.3406 110.377C53.5928 110.89 54.8725 111.334 56.1738 111.706C56.2326 111.723 56.2949 111.74 56.3572 111.758C56.9142 111.914 57.4747 112.055 58.0386 112.183C59.0245 112.412 60.0198 112.599 61.0242 112.744H61.0311C61.1522 112.761 61.2698 112.779 61.3909 112.796C61.4013 112.796 61.4117 112.8 61.4255 112.8C61.4255 112.803 61.4255 112.803 61.429 112.8C61.5604 112.817 61.6954 112.834 61.8268 112.851C61.8358 112.854 61.8451 112.855 61.8545 112.855C61.979 112.872 62.107 112.886 62.2316 112.9C62.3665 112.914 62.5014 112.928 62.6364 112.941C62.7402 112.952 62.8439 112.962 62.9477 112.973C62.9566 112.976 62.966 112.977 62.9754 112.976C63.0688 112.983 63.1622 112.993 63.2556 113H63.2695C63.349 113.007 63.4321 113.014 63.5117 113.021C64.4769 113.097 65.4456 113.132 66.4281 113.132C67.4902 113.132 68.5454 113.09 69.5867 113H69.5971C69.822 112.979 70.0434 112.959 70.2648 112.938C70.3236 112.931 70.379 112.928 70.4378 112.921C70.4481 112.921 70.462 112.917 70.4724 112.917C70.4897 112.914 70.507 112.914 70.5277 112.91C70.5371 112.911 70.5464 112.909 70.5554 112.907C70.6315 112.9 70.7076 112.89 70.7872 112.883L71.0467 112.851C71.1332 112.841 71.2196 112.827 71.3061 112.817C71.3269 112.813 71.3442 112.813 71.3649 112.81C71.4272 112.803 71.4895 112.793 71.5518 112.782C71.5829 112.779 71.614 112.775 71.6417 112.772C71.704 112.761 71.7628 112.755 71.8251 112.744H71.8285C73.7269 112.471 75.6009 112.048 77.4331 111.481C77.53 111.45 77.6268 111.422 77.7237 111.391C77.277 109.307 76.3574 107.353 75.0358 105.681C73.7143 104.01 72.0263 102.664 70.1022 101.749C70.5781 101.295 70.9071 100.709 71.0467 100.066C71.1365 99.6523 71.1436 99.2244 71.0676 98.8075C70.9916 98.3905 70.834 97.9927 70.6038 97.6369C70.1549 96.9473 69.4506 96.4642 68.6457 96.294L63.5186 95.2211C62.6932 95.0601 61.8377 95.2316 61.138 95.6982C60.4384 96.1649 59.9511 96.8889 59.7822 97.713C59.7299 97.9657 59.7067 98.2235 59.713 98.4814C54.7761 101.769 51.2231 105.178 48.9778 108.799Z" fill="#FF5757"/>
<path d="M69.2609 91.7587C76.1534 91.7587 81.7408 86.169 81.7408 79.2737C81.7408 72.3785 76.1534 66.7888 69.2609 66.7888C62.3685 66.7888 56.7811 72.3785 56.7811 79.2737C56.7811 86.169 62.3685 91.7587 69.2609 91.7587Z" fill="#9E616A"/>
<path d="M67.4875 91.0913C64.3632 91.9355 60.9187 90.8132 58.4805 88.6843C56.0423 86.5554 54.517 83.5388 53.6382 80.4229C52.9946 78.1408 52.6894 75.6077 53.7051 73.4653C54.7208 71.3229 57.4543 69.8775 59.5633 70.9597C58.2623 69.4433 58.9122 66.9353 60.4317 65.6381C61.9511 64.3409 64.0375 63.969 66.0247 63.7657C68.9086 63.4707 71.8875 63.4376 74.6318 64.3723C77.376 65.307 79.8694 67.3505 80.7283 70.1204C81.6055 70.529 82.5934 70.635 83.5372 70.4218C84.4811 70.2086 85.3276 69.6883 85.9442 68.9423C86.1032 69.799 85.9755 70.6843 85.5809 71.4612C85.1863 72.2381 84.5468 72.8632 83.7613 73.2398L87.966 71.8761C88.6891 73.4073 87.422 75.3025 85.8017 75.7928C84.1814 76.2832 82.4323 75.7472 80.8947 75.0388C79.3571 74.3304 77.867 73.4347 76.1968 73.1584C74.5266 72.8821 72.5648 73.419 71.7922 74.9259C71.3876 75.7152 71.3665 76.6395 71.1316 77.4948C70.8967 78.3501 70.3016 79.2369 69.4177 79.3069C68.8592 79.3511 68.3125 79.0536 67.7556 79.1144C67.4139 79.1817 67.0991 79.3473 66.85 79.5908C66.6009 79.8343 66.4281 80.1452 66.3529 80.4854C66.2143 81.1682 66.2126 81.8717 66.348 82.5551L67.416 90.7224L67.4875 91.0913Z" fill="#2F2E41"/>
</g>
<defs>
<clipPath id="clip0_1158_2072">
<rect width="280" height="218" fill="white" transform="translate(0.5)"/>
</clipPath>
</defs>
</svg>
