<svg width="23" height="23" viewBox="0 0 23 23" fill="none" xmlns="http://www.w3.org/2000/svg">
<path d="M18.86 1.15C18.86 0.845001 18.7388 0.552494 18.5232 0.336827C18.3075 0.12116 18.015 0 17.71 0C17.405 0 17.1125 0.12116 16.8968 0.336827C16.6812 0.552494 16.56 0.845001 16.56 1.15H18.86ZM16.56 5.29C16.56 5.595 16.6812 5.88751 16.8968 6.10317C17.1125 6.31884 17.405 6.44 17.71 6.44C18.015 6.44 18.3075 6.31884 18.5232 6.10317C18.7388 5.88751 18.86 5.595 18.86 5.29H16.56ZM6.44 1.15C6.44 0.845001 6.31884 0.552494 6.10318 0.336827C5.88751 0.12116 5.595 0 5.29 0C4.98501 0 4.6925 0.12116 4.47683 0.336827C4.26116 0.552494 4.14 0.845001 4.14 1.15H6.44ZM4.14 5.29C4.14 5.595 4.26116 5.88751 4.47683 6.10317C4.6925 6.31884 4.98501 6.44 5.29 6.44C5.595 6.44 5.88751 6.31884 6.10318 6.10317C6.31884 5.88751 6.44 5.595 6.44 5.29H4.14ZM20.7 7.82V17.25H23V7.82H20.7ZM17.25 20.7H5.75V23H17.25V20.7ZM2.3 17.25V7.82H4.75194e-06V17.25H2.3ZM5.75115 4.37H17.2477V2.07H5.75345V4.37H5.75115ZM21.85 8.28H1.15V10.58H21.85V8.28ZM16.56 1.15V5.29H18.86V1.15H16.56ZM4.14 1.15V5.29H6.44V1.15H4.14ZM5.75 20.7C4.63335 20.7 3.91115 20.6977 3.37985 20.6264C2.88075 20.5585 2.72435 20.4504 2.63695 20.363L1.01085 21.9891C1.59735 22.5756 2.31955 22.8045 3.0728 22.9057C3.795 23.0023 4.69775 23 5.75 23V20.7ZM4.75194e-06 17.25C4.75194e-06 18.3022 -0.00229522 19.2061 0.0943048 19.9272C0.195505 20.6804 0.424355 21.4038 1.01085 21.9891L2.63695 20.363C2.54955 20.2756 2.44145 20.1192 2.3736 19.6201C2.3023 19.09 2.3 18.3666 2.3 17.25H4.75194e-06ZM20.7 17.25C20.7 18.3666 20.6977 19.0888 20.6264 19.6201C20.5586 20.1192 20.4505 20.2756 20.3631 20.363L21.9892 21.9891C22.5757 21.4026 22.8045 20.6804 22.9057 19.9272C23.0023 19.205 23 18.3022 23 17.25H20.7ZM17.25 23C18.3023 23 19.2062 23.0023 19.9272 22.9057C20.6805 22.8045 21.4038 22.5756 21.9892 21.9891L20.3631 20.363C20.2757 20.4504 20.1193 20.5585 19.6202 20.6264C19.0889 20.6977 18.3667 20.7 17.25 20.7V23ZM23 7.82C23 6.76775 23.0023 5.86385 22.9057 5.1428C22.8045 4.38955 22.5757 3.6662 21.9892 3.08085L20.3631 4.70695C20.4505 4.79435 20.5586 4.95075 20.6264 5.44985C20.6977 5.98115 20.7 6.70335 20.7 7.82H23ZM17.2489 4.37C18.3655 4.37 19.0889 4.3723 19.6202 4.4436C20.1193 4.51145 20.2757 4.61955 20.3631 4.70695L21.9892 3.08085C21.4027 2.49435 20.6805 2.2655 19.9261 2.1643C19.205 2.0677 18.3011 2.07 17.25 2.07L17.2489 4.37ZM2.3 7.82C2.3 6.70335 2.3023 5.98115 2.3736 5.44985C2.44145 4.95075 2.54955 4.79435 2.63695 4.70695L1.01085 3.08085C0.424355 3.66735 0.195505 4.38955 0.0943048 5.1428C-0.00229522 5.865 4.75194e-06 6.76775 4.75194e-06 7.82H2.3ZM5.75115 2.07C4.6989 2.07 3.795 2.0677 3.07395 2.1643C2.31955 2.2655 1.5962 2.49435 1.01085 3.08085L2.63695 4.70695C2.72435 4.61955 2.88075 4.51145 3.37985 4.4436C3.9123 4.3723 4.63335 4.37 5.75115 4.37V2.07Z" fill="#848484"/>
</svg>
