<svg width="24" height="24" viewBox="0 0 24 24" fill="none" xmlns="http://www.w3.org/2000/svg">
<path d="M19.36 1.65C19.36 1.345 19.2388 1.05249 19.0232 0.836827C18.8075 0.62116 18.515 0.5 18.21 0.5C17.905 0.5 17.6125 0.62116 17.3968 0.836827C17.1812 1.05249 17.06 1.345 17.06 1.65H19.36ZM17.06 5.79C17.06 6.095 17.1812 6.38751 17.3968 6.60317C17.6125 6.81884 17.905 6.94 18.21 6.94C18.515 6.94 18.8075 6.81884 19.0232 6.60317C19.2388 6.38751 19.36 6.095 19.36 5.79H17.06ZM6.94 1.65C6.94 1.345 6.81884 1.05249 6.60318 0.836827C6.38751 0.62116 6.095 0.5 5.79 0.5C5.48501 0.5 5.1925 0.62116 4.97683 0.836827C4.76116 1.05249 4.64 1.345 4.64 1.65H6.94ZM4.64 5.79C4.64 6.095 4.76116 6.38751 4.97683 6.60317C5.1925 6.81884 5.48501 6.94 5.79 6.94C6.095 6.94 6.38751 6.81884 6.60318 6.60317C6.81884 6.38751 6.94 6.095 6.94 5.79H4.64ZM21.2 8.32V17.75H23.5V8.32H21.2ZM17.75 21.2H6.25V23.5H17.75V21.2ZM2.8 17.75V8.32H0.500005V17.75H2.8ZM6.25115 4.87H17.7477V2.57H6.25345V4.87H6.25115ZM22.35 8.78H1.65V11.08H22.35V8.78ZM17.06 1.65V5.79H19.36V1.65H17.06ZM4.64 1.65V5.79H6.94V1.65H4.64ZM6.25 21.2C5.13335 21.2 4.41115 21.1977 3.87985 21.1264C3.38075 21.0585 3.22435 20.9504 3.13695 20.863L1.51085 22.4891C2.09735 23.0756 2.81955 23.3045 3.5728 23.4057C4.295 23.5023 5.19775 23.5 6.25 23.5V21.2ZM0.500005 17.75C0.500005 18.8022 0.497705 19.7061 0.594305 20.4272C0.695505 21.1804 0.924355 21.9038 1.51085 22.4891L3.13695 20.863C3.04955 20.7756 2.94145 20.6192 2.8736 20.1201C2.8023 19.59 2.8 18.8666 2.8 17.75H0.500005ZM21.2 17.75C21.2 18.8666 21.1977 19.5888 21.1264 20.1201C21.0586 20.6192 20.9505 20.7756 20.8631 20.863L22.4892 22.4891C23.0757 21.9026 23.3045 21.1804 23.4057 20.4272C23.5023 19.705 23.5 18.8022 23.5 17.75H21.2ZM17.75 23.5C18.8023 23.5 19.7062 23.5023 20.4272 23.4057C21.1805 23.3045 21.9038 23.0756 22.4892 22.4891L20.8631 20.863C20.7757 20.9504 20.6193 21.0585 20.1202 21.1264C19.5889 21.1977 18.8667 21.2 17.75 21.2V23.5ZM23.5 8.32C23.5 7.26775 23.5023 6.36385 23.4057 5.6428C23.3045 4.88955 23.0757 4.1662 22.4892 3.58085L20.8631 5.20695C20.9505 5.29435 21.0586 5.45075 21.1264 5.94985C21.1977 6.48115 21.2 7.20335 21.2 8.32H23.5ZM17.7489 4.87C18.8655 4.87 19.5889 4.8723 20.1202 4.9436C20.6193 5.01145 20.7757 5.11955 20.8631 5.20695L22.4892 3.58085C21.9027 2.99435 21.1805 2.7655 20.4261 2.6643C19.705 2.5677 18.8011 2.57 17.75 2.57L17.7489 4.87ZM2.8 8.32C2.8 7.20335 2.8023 6.48115 2.8736 5.94985C2.94145 5.45075 3.04955 5.29435 3.13695 5.20695L1.51085 3.58085C0.924355 4.16735 0.695505 4.88955 0.594305 5.6428C0.497705 6.365 0.500005 7.26775 0.500005 8.32H2.8ZM6.25115 2.57C5.1989 2.57 4.295 2.5677 3.57395 2.6643C2.81955 2.7655 2.0962 2.99435 1.51085 3.58085L3.13695 5.20695C3.22435 5.11955 3.38075 5.01145 3.87985 4.9436C4.4123 4.8723 5.13335 4.87 6.25115 4.87V2.57Z" fill="#ECF1F4"/>
</svg>
