<svg width="111" height="84" viewBox="0 0 111 84" fill="none" xmlns="http://www.w3.org/2000/svg">
<g clip-path="url(#clip0_540_3197)">
<path d="M78.7887 61.609H19.0137C18.4811 61.6084 17.9704 61.3915 17.5938 61.006C17.2172 60.6205 17.0054 60.0977 17.0048 59.5525V9.72644C17.0054 9.18121 17.2172 8.6585 17.5938 8.27296C17.9704 7.88743 18.4811 7.67055 19.0137 7.66992H78.7887C79.3213 7.67055 79.8319 7.88743 80.2085 8.27296C80.5851 8.6585 80.797 9.18121 80.7976 9.72644V59.5525C80.797 60.0977 80.5851 60.6205 80.2085 61.006C79.8319 61.3915 79.3213 61.6084 78.7887 61.609Z" fill="#E6E6E6"/>
<path d="M20.369 9.13379C19.856 9.1344 19.3641 9.34331 19.0014 9.7147C18.6386 10.0861 18.4345 10.5896 18.434 11.1148V58.1655C18.4346 58.6907 18.6386 59.1942 19.0014 59.5655C19.3642 59.9369 19.856 60.1458 20.369 60.1464H61.2827C66.0778 60.1408 70.6749 58.1884 74.0655 54.7174C77.4561 51.2464 79.3633 46.5403 79.3688 41.6316V11.1148C79.3682 10.5896 79.1642 10.0861 78.8014 9.7147C78.4386 9.34331 77.9467 9.1344 77.4337 9.13379L20.369 9.13379Z" fill="white"/>
<path d="M67.8886 30.2945H57.05C56.824 30.2943 56.6072 30.2022 56.4474 30.0386C56.2875 29.8749 56.1976 29.6531 56.1974 29.4217V23.8992C56.1976 23.6678 56.2875 23.4459 56.4474 23.2823C56.6072 23.1187 56.824 23.0266 57.05 23.0264H67.8886C68.1147 23.0266 68.3314 23.1187 68.4913 23.2823C68.6511 23.4459 68.741 23.6678 68.7413 23.8992C69.4119 25.8535 69.5072 27.7104 68.7413 29.4217C68.741 29.6531 68.6511 29.8749 68.4913 30.0386C68.3314 30.2022 68.1147 30.2943 67.8886 30.2945Z" fill="#E6E6E6"/>
<path d="M66.6046 29.761H57.396C57.204 29.7608 57.0198 29.6826 56.884 29.5435C56.7482 29.4045 56.6718 29.216 56.6716 29.0194V24.3275C56.6718 24.1309 56.7482 23.9424 56.884 23.8034C57.0198 23.6644 57.204 23.5862 57.396 23.5859H66.6046C66.7966 23.5862 66.9807 23.6644 67.1165 23.8034C67.2523 23.9424 67.3287 24.1309 67.3289 24.3275C67.9504 25.9985 68.0504 27.5796 67.3289 29.0194C67.3287 29.216 67.2523 29.4045 67.1165 29.5435C66.9807 29.6826 66.7966 29.7608 66.6046 29.761Z" fill="white"/>
<path d="M66.108 33.1873H58.8066C58.5918 33.1877 58.3857 33.1006 58.2336 32.9454C58.0814 32.7902 57.9958 32.5795 57.9954 32.3596C57.995 32.1397 58.0799 31.9287 58.2314 31.7729C58.383 31.6171 58.5888 31.5293 58.8036 31.5288H66.108C66.3225 31.5292 66.5282 31.6168 66.6798 31.7723C66.8313 31.9277 66.9165 32.1384 66.9165 32.3581C66.9165 32.5777 66.8313 32.7884 66.6798 32.9439C66.5282 33.0994 66.3225 33.1869 66.108 33.1873Z" fill="#E6E6E6"/>
<path d="M61.1988 24.8525C61.1148 24.8528 61.0344 24.8872 60.975 24.948C60.9157 25.0089 60.8823 25.0913 60.8821 25.1773V28.6923C60.8821 28.749 60.8966 28.8048 60.9243 28.854C60.9519 28.9032 60.9917 28.9441 61.0397 28.9726C61.0876 29.0012 61.142 29.0163 61.1975 29.0165C61.2529 29.0167 61.3075 29.0021 61.3556 28.9739L64.3863 27.2049C64.435 27.1765 64.4755 27.1354 64.5036 27.0858C64.5317 27.0361 64.5464 26.9797 64.5463 26.9224C64.5461 26.865 64.5311 26.8087 64.5027 26.7592C64.4744 26.7097 64.4337 26.6689 64.3848 26.6407L61.3543 24.8946C61.3069 24.8671 61.2533 24.8526 61.1988 24.8525Z" fill="#E6E6E6"/>
<path d="M105.415 77.2746C105.248 77.057 105.021 76.8956 104.763 76.8114C104.505 76.7271 104.229 76.7237 103.97 76.8017L103.913 76.819L103.404 78.8528C103.328 78.5497 103.165 77.8654 103.062 77.1956L103.053 77.1403L103.002 77.1629C102.47 77.4037 101.97 77.7123 101.514 78.0814C100.705 78.7453 100.048 79.5816 99.5868 80.5319C99.1258 81.4823 98.8725 82.5241 98.8445 83.5848L98.8437 83.6238L98.8428 83.6483L98.9101 83.6238L100.356 83.0947C100.996 83.1525 101.641 83.0632 102.243 82.8333C102.845 82.6034 103.39 82.2388 103.837 81.7661C104.421 81.1353 104.822 80.324 105.209 79.5389C105.323 79.3102 105.439 79.0743 105.557 78.8474C105.69 78.6006 105.747 78.3189 105.722 78.0386C105.696 77.7582 105.589 77.4921 105.415 77.2746Z" fill="#F2F2F2"/>
<path d="M68.4894 25.4092C68.5184 25.5631 68.5801 25.7087 68.67 25.8357C68.7599 25.9626 68.8759 26.0678 69.0098 26.1439C69.1438 26.22 69.2924 26.265 69.4452 26.276C69.598 26.2869 69.7513 26.2634 69.8942 26.2071L74.2157 31.3534L74.7628 29.4536L70.4785 24.7453C70.3702 24.5057 70.1798 24.315 69.9434 24.2095C69.707 24.104 69.441 24.0909 69.1958 24.1727C68.9507 24.2546 68.7433 24.4257 68.6131 24.6535C68.4829 24.8814 68.4389 25.1503 68.4894 25.4092Z" fill="#FFB8B8"/>
<path d="M85.9059 82.3936H84.4758L83.7954 76.7466H85.9062L85.9059 82.3936Z" fill="#FFB6B6"/>
<path d="M85.8678 81.9154L84.3409 81.2796L84.2971 81.2612L83.4541 81.9154C82.9781 81.9155 82.5216 82.1091 82.185 82.4537C81.8484 82.7982 81.6593 83.2655 81.6592 83.7528V83.8125H86.2703V81.9154H85.8678Z" fill="#2F2E41"/>
<path d="M96.108 82.3936H94.6779L93.9976 76.7466H96.1083L96.108 82.3936Z" fill="#FFB6B6"/>
<path d="M96.0698 81.9154L94.5429 81.2796L94.4992 81.2612L93.6561 81.9154C93.1801 81.9155 92.7236 82.1091 92.387 82.4537C92.0504 82.7982 91.8613 83.2655 91.8612 83.7528V83.8125H96.4723V81.9154H96.0698Z" fill="#2F2E41"/>
<path d="M92.7327 48.6724C92.7327 48.6724 94.5265 50.5827 94.5265 52.1524C94.5265 53.7221 94.0781 55.8774 94.5265 56.3491C94.975 56.8209 95.5355 57.3947 94.8629 58.0833C94.1902 58.7719 93.8539 59.1162 94.3023 59.5753C94.7507 60.0344 94.5265 68.0681 94.5265 68.0681L96.8808 78.8563H93.9148L90.1542 68.0681L89.1452 59.1162L85.8821 67.7238L86.2424 78.9488L83.1416 78.8563L81.858 66.9204C81.858 66.9204 83.7639 55.5665 83.4276 55.2756C83.0913 54.9846 83.4276 54.3972 83.4276 54.3972L84.3245 50.0496L92.7327 48.6724Z" fill="#2F2E41"/>
<path d="M89.2207 35.1275C89.2207 35.1275 89.8306 32.6671 87.0206 31.9617C84.2107 31.2562 76.1783 30.35 76.1783 30.35L72.119 25.9404L70.7435 27.9853L75.2941 33.7743L86.0764 36.0415L89.2207 35.1275Z" fill="#3F3D56"/>
<path d="M71.4121 27.8346C71.5382 27.6674 71.6368 27.4803 71.7042 27.2807L72.2863 25.8163L72.1352 25.8099C71.9261 25.7696 71.711 25.775 71.5041 25.8258C71.2972 25.8765 71.1031 25.9715 70.9345 26.1044C70.7659 26.2373 70.6267 26.4052 70.5259 26.597C70.4251 26.7889 70.3651 27.0003 70.3498 27.2176C70.3307 27.4055 70.3636 27.5951 70.4449 27.7648C70.4862 27.8489 70.5465 27.9218 70.6207 27.9774C70.6948 28.0331 70.7808 28.07 70.8716 28.0852C70.9748 28.0908 71.0777 28.071 71.1717 28.0274C71.2658 27.9838 71.3482 27.9176 71.4121 27.8346Z" fill="#E6E6E6"/>
<path d="M83.752 50.6359L83.4156 53.1318C83.4156 53.1318 84.0883 53.8713 84.4246 53.7788C84.761 53.6864 85.9942 53.1483 85.9942 53.1483C85.9942 53.1483 87.4516 53.9637 88.2364 54.0562C89.0212 54.1486 93.1693 53.594 93.2814 53.3166C93.3935 53.0393 94.6965 51.9538 94.6965 51.9538L94.1783 48.7871L83.752 50.6359Z" fill="#E6E6E6"/>
<path d="M94.6749 41.9048C94.6749 41.9048 94.3901 44.3115 94.6143 44.533C94.8385 44.7533 94.3901 46.1478 93.9417 47.0659C93.4932 47.9841 94.278 48.0988 94.278 48.7874C94.278 49.476 94.6143 52.0009 94.6143 52.0009C94.6143 52.0009 91.1389 52.2305 90.5783 51.6566C90.0178 51.0828 89.1209 51.5418 87.8877 52.8043C86.6545 54.0667 83.9762 53.0338 83.4156 52.46C82.855 51.8861 83.8517 49.8203 84.188 49.4198C84.5244 49.0193 83.864 49.4829 83.5277 48.2136C83.1914 46.9443 83.8517 47.0659 84.4123 46.4921C84.9728 45.9182 84.4123 44.8853 83.9638 43.8524C83.5154 42.8195 83.8517 35.1301 83.8517 33.2938C83.8517 31.4575 86.3181 31.228 86.3181 31.228L87.2946 29.9713L88.0121 29.0474L89.418 28.99L89.455 28.9889L90.8149 28.9326L91.4752 29.7199L92.9327 31.4575L94.6143 31.8018C95.9596 32.2609 95.6233 35.1301 95.6233 35.1301L94.6749 41.9048Z" fill="#3F3D56"/>
<path d="M89.3486 28.4921C90.9402 28.4921 92.2304 27.1712 92.2304 25.5419C92.2304 23.9126 90.9402 22.5918 89.3486 22.5918C87.757 22.5918 86.4668 23.9126 86.4668 25.5419C86.4668 27.1712 87.757 28.4921 89.3486 28.4921Z" fill="#FFB6B6"/>
<path d="M92.6901 24.5495C91.8974 24.0519 91.999 22.7508 91.2353 22.2964C90.8557 22.0724 90.4288 21.9456 89.9911 21.9268C89.5533 21.9079 89.1176 21.9977 88.721 22.1883C88.1831 21.9527 87.5386 22.1407 87.1083 22.5661C86.678 22.9916 86.445 23.6192 86.3763 24.2503C86.3267 24.8845 86.3712 25.5226 86.5083 26.1432C86.551 25.8939 86.5937 25.6445 86.6365 25.3952L88.9083 24.8869C88.7072 25.0719 88.5061 25.2569 88.305 25.4419C89.3339 25.6817 90.4135 25.5088 91.3218 24.9589C92.3108 25.4128 92.1315 26.4321 91.2633 27.7849C91.5997 28.3587 93.5932 25.1166 92.6901 24.5495Z" fill="#2F2E41"/>
<path d="M91.4753 29.7198C91.4688 29.7251 91.4621 29.7301 91.4551 29.7347C91.2176 29.8797 90.9457 29.9551 90.6692 29.9527C90.3073 29.9836 89.9479 29.8683 89.6681 29.6314C89.5212 29.4891 88.9371 29.7898 88.5537 29.9562C88.1515 30.1268 87.7006 30.1321 87.2947 29.9711L88.0122 29.0472L89.1947 28.7788H89.4899L90.8149 28.9324L91.4753 29.7198Z" fill="#E6E6E6"/>
<path d="M110.825 83.9536L70.7105 84C70.6874 84.0002 70.6645 83.9956 70.6432 83.9867C70.6218 83.9778 70.6024 83.9646 70.5859 83.948C70.5695 83.9314 70.5565 83.9116 70.5475 83.8898C70.5386 83.8681 70.5339 83.8447 70.5338 83.8211C70.5337 83.7974 70.5381 83.774 70.5468 83.7521C70.5556 83.7302 70.5684 83.7104 70.5846 83.6936C70.6009 83.6768 70.6202 83.6634 70.6415 83.6542C70.6628 83.6451 70.6856 83.6403 70.7087 83.6402H70.7105L110.825 83.5938C110.872 83.594 110.916 83.613 110.949 83.6468C110.982 83.6805 111 83.7261 111 83.7737C111 83.8212 110.982 83.8669 110.949 83.9006C110.916 83.9343 110.872 83.9534 110.825 83.9536Z" fill="#CACACA"/>
<path d="M62.7934 23.5276H62.4982V1.91162H74.1092V2.21385H62.7934V23.5276Z" fill="#3F3D56"/>
<path d="M83.1393 0H75.3156C74.8067 0 74.3186 0.206974 73.9587 0.575388C73.5988 0.943802 73.3966 1.44348 73.3966 1.96449C73.3966 2.48551 73.5988 2.98519 73.9587 3.3536C74.3186 3.72202 74.8067 3.92899 75.3156 3.92899H83.1393C83.6482 3.92899 84.1363 3.72202 84.4962 3.3536C84.8561 2.98519 85.0583 2.48551 85.0583 1.96449C85.0583 1.44348 84.8561 0.943802 84.4962 0.575388C84.1363 0.206974 83.6482 0 83.1393 0Z" fill="#FF5757"/>
<path d="M62.4745 25.5054C63.4484 25.5054 64.2379 24.6972 64.2379 23.7002C64.2379 22.7032 63.4484 21.895 62.4745 21.895C61.5006 21.895 60.7111 22.7032 60.7111 23.7002C60.7111 24.6972 61.5006 25.5054 62.4745 25.5054Z" fill="#FF5757"/>
<path d="M41.2251 30.4833L48.9611 28.6507L51.1816 28.1246C51.4593 28.0588 51.344 27.6211 51.0661 27.6869L43.3301 29.5195L41.1096 30.0455C40.8318 30.1113 40.9472 30.5491 41.2251 30.4833Z" fill="#F2F2F2"/>
<path d="M49.2134 25.7107L53.3548 27.6609C53.4961 27.7109 53.6285 27.7843 53.7467 27.8781C53.861 27.9927 53.7778 28.1029 53.6845 28.2028C53.4058 28.4692 53.1114 28.7179 52.803 28.9476L51.0386 30.416C50.8172 30.6003 51.1297 30.922 51.3491 30.7394L52.8858 29.4604L53.6542 28.8209C53.8718 28.6398 54.1368 28.4549 54.2243 28.1663C54.4081 27.5599 53.6828 27.3188 53.2797 27.129L51.4762 26.2797L49.4389 25.3204C49.1822 25.1994 48.9547 25.5888 49.2134 25.7107Z" fill="#F2F2F2"/>
<path d="M106.363 40.5566C105.626 40.0446 104.729 39.8543 103.853 39.7897C102.857 39.7343 101.859 39.7355 100.864 39.7933C99.8295 39.8353 98.7973 39.9119 97.7672 40.0232C96.7386 40.1346 95.7144 40.2807 94.6944 40.4612C93.7812 40.6068 92.8775 40.8093 91.9884 41.0676C91.1468 41.306 90.3541 41.6979 89.6484 42.2244C89.0289 42.7013 88.5525 43.3466 88.2734 44.0868C87.9993 44.7811 87.9527 45.5476 88.1406 46.2713C88.2407 46.6229 88.4121 46.9488 88.6436 47.228C88.9112 47.5342 89.2282 47.7911 89.5807 47.9875C90.3126 48.4154 91.1418 48.6726 91.8038 49.2203C91.9784 49.3636 92.1375 49.5255 92.2784 49.7034C92.3742 49.841 92.5065 49.9476 92.6597 50.0104C92.8049 50.0624 92.9618 50.0691 93.1107 50.0299C93.2596 49.9906 93.3938 49.9071 93.4964 49.7899C93.629 49.6042 93.7396 49.403 93.8257 49.1905L94.175 48.5008C94.1983 48.4405 94.2276 48.3827 94.2623 48.3284C94.2884 48.2965 94.2416 48.3291 94.2506 48.3207C94.2555 48.316 94.2656 48.3162 94.2712 48.3125C94.3001 48.2978 94.3303 48.2859 94.3614 48.2771C94.6844 48.151 95.0089 48.0289 95.3348 47.9107C96.5377 47.4718 97.7552 47.0673 98.9919 46.7396C99.6282 46.5649 100.274 46.4266 100.925 46.3256C101.769 46.2026 102.625 46.2168 103.473 46.1328C104.385 46.0422 105.327 45.8531 106.11 45.3387C106.757 44.9362 107.255 44.3254 107.527 43.602C107.645 43.2572 107.685 42.8897 107.645 42.5267C107.544 41.7055 107.019 41.0119 106.363 40.5566Z" fill="#E6E6E6"/>
<path d="M104.853 41.0184C104.187 40.5557 103.377 40.3837 102.585 40.3254C101.685 40.2752 100.783 40.2763 99.8836 40.3286C98.9489 40.3665 98.0162 40.4358 97.0854 40.5363C96.1558 40.637 95.2302 40.769 94.3085 40.9322C93.4833 41.0637 92.6666 41.2467 91.8632 41.4801C91.1027 41.6956 90.3863 42.0497 89.7486 42.5254C89.1888 42.9565 88.7583 43.5396 88.506 44.2085C88.2583 44.8359 88.2162 45.5286 88.386 46.1826C88.4765 46.5003 88.6314 46.7948 88.8406 47.0471C89.0824 47.3238 89.3688 47.556 89.6874 47.7335C90.3488 48.1201 91.0982 48.3525 91.6964 48.8475C91.8541 48.977 91.9979 49.1233 92.1253 49.2841C92.2118 49.4084 92.3314 49.5047 92.4698 49.5615C92.601 49.6084 92.7428 49.6145 92.8774 49.5791C93.0119 49.5436 93.1332 49.4682 93.226 49.3622C93.3458 49.1944 93.4457 49.0126 93.5235 48.8206L93.8391 48.1973C93.8602 48.1428 93.8867 48.0906 93.918 48.0415C93.9417 48.0126 93.8994 48.0421 93.9074 48.0345C93.9119 48.0303 93.921 48.0305 93.9261 48.0271C93.9522 48.0138 93.9795 48.0031 94.0076 47.9951C94.2995 47.8812 94.5927 47.7709 94.8872 47.6641C95.9743 47.2674 97.0745 46.9019 98.192 46.6058C98.7671 46.4479 99.3503 46.3229 99.939 46.2316C100.701 46.1204 101.475 46.1333 102.241 46.0574C103.066 45.9755 103.917 45.8047 104.624 45.3398C105.209 44.9761 105.659 44.4241 105.905 43.7704C106.011 43.4588 106.048 43.1267 106.012 42.7987C105.92 42.0566 105.446 41.4298 104.853 41.0184Z" fill="white"/>
<path d="M103.457 41.8538L92.5923 43.9051C92.5612 43.9112 92.5293 43.9109 92.4983 43.9044C92.4674 43.8978 92.438 43.885 92.4118 43.8667C92.3857 43.8485 92.3633 43.8252 92.346 43.7981C92.3287 43.7709 92.3168 43.7406 92.311 43.7088C92.3052 43.677 92.3055 43.6443 92.3121 43.6126C92.3186 43.5809 92.3312 43.5509 92.3491 43.5242C92.367 43.4975 92.3899 43.4747 92.4164 43.457C92.4429 43.4394 92.4726 43.4273 92.5037 43.4214L92.5051 43.4212L103.37 41.3698C103.401 41.3639 103.433 41.3644 103.464 41.3711C103.494 41.3779 103.524 41.3908 103.55 41.4091C103.576 41.4274 103.598 41.4508 103.615 41.478C103.632 41.5051 103.644 41.5354 103.65 41.5672C103.656 41.5989 103.655 41.6316 103.648 41.6632C103.642 41.6948 103.629 41.7247 103.611 41.7514C103.593 41.778 103.571 41.8007 103.544 41.8183C103.518 41.8359 103.488 41.8479 103.457 41.8538Z" fill="#E6E6E6"/>
<path d="M103.725 43.3391L92.86 45.3905C92.8289 45.3966 92.797 45.3963 92.766 45.3897C92.735 45.3831 92.7057 45.3703 92.6795 45.3521C92.6534 45.3338 92.631 45.3105 92.6137 45.2834C92.5964 45.2563 92.5845 45.226 92.5787 45.1941C92.5729 45.1623 92.5732 45.1296 92.5798 45.0979C92.5863 45.0663 92.5989 45.0362 92.6168 45.0095C92.6347 44.9828 92.6575 44.96 92.6841 44.9424C92.7106 44.9248 92.7402 44.9127 92.7714 44.9068L92.7728 44.9065L103.637 42.8552C103.669 42.8493 103.7 42.8498 103.731 42.8565C103.762 42.8632 103.791 42.8761 103.817 42.8945C103.843 42.9128 103.866 42.9362 103.883 42.9633C103.9 42.9904 103.912 43.0207 103.917 43.0525C103.923 43.0843 103.923 43.1169 103.916 43.1485C103.91 43.1801 103.897 43.2101 103.879 43.2367C103.861 43.2633 103.838 43.2861 103.812 43.3036C103.785 43.3212 103.756 43.3333 103.725 43.3391Z" fill="#E6E6E6"/>
<path d="M94.3937 46.6369L93.1276 46.8759C93.065 46.8875 93.0005 46.8732 92.9482 46.8362C92.8959 46.7992 92.86 46.7424 92.8485 46.6784C92.8369 46.6144 92.8507 46.5483 92.8866 46.4946C92.9226 46.4409 92.9779 46.404 93.0404 46.392L94.3065 46.1529C94.3692 46.1412 94.4337 46.1555 94.4861 46.1925C94.5385 46.2295 94.5744 46.2863 94.5859 46.3504C94.5974 46.4144 94.5837 46.4806 94.5477 46.5343C94.5116 46.588 94.4563 46.6249 94.3937 46.6369Z" fill="#E6E6E6"/>
<path d="M93.4764 52.8122C94.0314 52.7075 94.3982 52.162 94.2959 51.594C94.1935 51.0259 93.6607 50.6503 93.1058 50.7551C92.5509 50.8599 92.184 51.4053 92.2864 51.9734C92.3887 52.5414 92.9215 52.917 93.4764 52.8122Z" fill="#D1D3D4"/>
<path d="M37.2496 30.0147H27.9695C27.5387 30.0142 27.1257 29.8388 26.8211 29.5269C26.5165 29.2151 26.3451 28.7923 26.3446 28.3513V22.0902C26.3451 21.6492 26.5165 21.2264 26.8211 20.9145C27.1257 20.6027 27.5387 20.4273 27.9695 20.4268H37.2496C37.6804 20.4273 38.0934 20.6027 38.398 20.9145C38.7027 21.2264 38.874 21.6492 38.8745 22.0902V28.3513C38.874 28.7923 38.7027 29.2151 38.398 29.5269C38.0934 29.8388 37.6804 30.0142 37.2496 30.0147Z" fill="#E6E6E6"/>
<path d="M36.2298 29.6776H28.1532C27.7783 29.6771 27.4188 29.5245 27.1537 29.253C26.8886 28.9816 26.7395 28.6137 26.739 28.2298V22.7807C26.7395 22.3969 26.8886 22.0289 27.1537 21.7575C27.4188 21.4861 27.7783 21.3335 28.1532 21.333H36.2298C36.6047 21.3335 36.9642 21.4861 37.2293 21.7575C37.4944 22.0289 37.6436 22.3969 37.644 22.7807V28.2299C37.6436 28.6137 37.4944 28.9816 37.2293 29.253C36.9642 29.5245 36.6047 29.6771 36.2298 29.6776Z" fill="white"/>
<path d="M38.5567 35.6558H26.6492C26.5756 35.6556 26.5051 35.6256 26.4531 35.5722C26.4011 35.5189 26.3719 35.4467 26.3719 35.3713C26.3719 35.296 26.4011 35.2238 26.4531 35.1705C26.5051 35.1171 26.5756 35.0871 26.6492 35.0869H38.5567C38.6303 35.0871 38.7008 35.1171 38.7528 35.1705C38.8047 35.2238 38.8339 35.296 38.8339 35.3713C38.8339 35.4467 38.8047 35.5189 38.7528 35.5722C38.7008 35.6256 38.6303 35.6556 38.5567 35.6558Z" fill="#E6E6E6"/>
<path d="M38.5567 34.0303H26.6492C26.5756 34.0301 26.5051 34.0001 26.4531 33.9467C26.4011 33.8934 26.3719 33.8212 26.3719 33.7459C26.3719 33.6705 26.4011 33.5983 26.4531 33.545C26.5051 33.4916 26.5756 33.4616 26.6492 33.4614H38.5567C38.6303 33.4616 38.7008 33.4916 38.7528 33.545C38.8047 33.5983 38.8339 33.6705 38.8339 33.7459C38.8339 33.8212 38.8047 33.8934 38.7528 33.9467C38.7008 34.0001 38.6303 34.0301 38.5567 34.0303Z" fill="#E6E6E6"/>
<path d="M38.5567 37.2808H26.6492C26.5755 37.2808 26.5048 37.2508 26.4527 37.1975C26.4006 37.1441 26.3713 37.0718 26.3713 36.9963C26.3713 36.9209 26.4006 36.8486 26.4527 36.7952C26.5048 36.7419 26.5755 36.7119 26.6492 36.7119H38.5567C38.6304 36.7119 38.7011 36.7419 38.7532 36.7952C38.8053 36.8486 38.8346 36.9209 38.8346 36.9963C38.8346 37.0718 38.8053 37.1441 38.7532 37.1975C38.7011 37.2508 38.6304 37.2808 38.5567 37.2808Z" fill="#E6E6E6"/>
<path d="M38.5567 38.9063H26.6492C26.5755 38.9063 26.5048 38.8763 26.4527 38.823C26.4006 38.7696 26.3713 38.6973 26.3713 38.6218C26.3713 38.5464 26.4006 38.4741 26.4527 38.4207C26.5048 38.3674 26.5755 38.3374 26.6492 38.3374H38.5567C38.6304 38.3374 38.7011 38.3674 38.7532 38.4207C38.8053 38.4741 38.8346 38.5464 38.8346 38.6218C38.8346 38.6973 38.8053 38.7696 38.7532 38.823C38.7011 38.8763 38.6304 38.9063 38.5567 38.9063Z" fill="#E6E6E6"/>
<path d="M38.5567 40.5317H26.6492C26.5755 40.5317 26.5048 40.5018 26.4527 40.4484C26.4006 40.3951 26.3713 40.3228 26.3713 40.2473C26.3713 40.1719 26.4006 40.0995 26.4527 40.0462C26.5048 39.9929 26.5755 39.9629 26.6492 39.9629H38.5567C38.6304 39.9629 38.7011 39.9929 38.7532 40.0462C38.8053 40.0995 38.8346 40.1719 38.8346 40.2473C38.8346 40.3228 38.8053 40.3951 38.7532 40.4484C38.7011 40.5018 38.6304 40.5317 38.5567 40.5317Z" fill="#E6E6E6"/>
<path d="M38.5567 42.1567H26.6492C26.5756 42.1566 26.5051 42.1265 26.4531 42.0732C26.4011 42.0199 26.3719 41.9476 26.3719 41.8723C26.3719 41.797 26.4011 41.7248 26.4531 41.6714C26.5051 41.6181 26.5756 41.5881 26.6492 41.5879H38.5567C38.6303 41.5881 38.7008 41.6181 38.7528 41.6714C38.8047 41.7248 38.8339 41.797 38.8339 41.8723C38.8339 41.9476 38.8047 42.0199 38.7528 42.0732C38.7008 42.1265 38.6303 42.1566 38.5567 42.1567Z" fill="#E6E6E6"/>
<path d="M32.0076 38.4292H32.3028V50.0715H10.9491V49.7693H32.0076V38.4292Z" fill="#3F3D56"/>
<path d="M1.91901 51.9837H9.74266C10.2516 51.9837 10.7397 51.7767 11.0996 51.4083C11.4595 51.0399 11.6617 50.5402 11.6617 50.0192C11.6617 49.4982 11.4595 48.9985 11.0996 48.6301C10.7397 48.2617 10.2516 48.0547 9.74266 48.0547H1.91901C1.41006 48.0547 0.92195 48.2617 0.562066 48.6301C0.202182 48.9985 0 49.4982 0 50.0192C0 50.5402 0.202182 51.0399 0.562066 51.4083C0.92195 51.7767 1.41006 51.9837 1.91901 51.9837Z" fill="#FF5757"/>
<path d="M32.3608 39.3067C33.3347 39.3067 34.1242 38.4985 34.1242 37.5015C34.1242 36.5045 33.3347 35.6963 32.3608 35.6963C31.3869 35.6963 30.5974 36.5045 30.5974 37.5015C30.5974 38.4985 31.3869 39.3067 32.3608 39.3067Z" fill="#FF5757"/>
<path d="M41.4754 38.0031C44.0644 38.5664 43.4058 38.6763 45.9948 39.2396L48.2242 39.7246C48.503 39.7853 48.5794 39.3387 48.3004 39.278C45.7114 38.7147 46.37 38.6048 43.781 38.0415L41.5516 37.5564C41.2727 37.4958 41.1964 37.9424 41.4754 38.0031Z" fill="#F2F2F2"/>
<path d="M47.4385 36.6851L50.385 40.2458C50.4924 40.3523 50.582 40.4761 50.6504 40.6123C50.7066 40.7657 50.5856 40.8295 50.4598 40.8796C50.0972 41.0003 49.7276 41.0982 49.3533 41.1727L47.1478 41.7391C46.8709 41.8102 47.0212 42.237 47.2954 42.1666L49.2164 41.6733L50.1769 41.4266C50.449 41.3567 50.7655 41.3039 50.964 41.0803C51.3811 40.6105 50.8236 40.0779 50.5368 39.7314L49.2536 38.1808L47.8041 36.4292C47.6214 36.2084 47.2544 36.4627 47.4385 36.6851Z" fill="#F2F2F2"/>
<path d="M56.781 52.2065C59.0458 52.2065 60.8817 50.327 60.8817 48.0085C60.8817 45.69 59.0458 43.8105 56.781 43.8105C54.5162 43.8105 52.6802 45.69 52.6802 48.0085C52.6802 50.327 54.5162 52.2065 56.781 52.2065Z" fill="#E6E6E6"/>
<path d="M56.3812 51.671C58.103 51.671 59.4988 50.2421 59.4988 48.4795C59.4988 46.7169 58.103 45.2881 56.3812 45.2881C54.6594 45.2881 53.2637 46.7169 53.2637 48.4795C53.2637 50.2421 54.6594 51.671 56.3812 51.671Z" fill="white"/>
<path d="M55.8218 50.6647C55.751 50.6647 55.6812 50.6478 55.6178 50.6154C55.5545 50.583 55.4994 50.5359 55.4569 50.4779L54.3382 48.9508C54.3022 48.9018 54.276 48.846 54.2611 48.7866C54.2463 48.7272 54.2429 48.6654 54.2514 48.6047C54.2598 48.544 54.2799 48.4855 54.3104 48.4328C54.3409 48.38 54.3812 48.3339 54.4291 48.2971C54.477 48.2602 54.5315 48.2334 54.5896 48.2182C54.6476 48.203 54.708 48.1996 54.7673 48.2082C54.8266 48.2168 54.8836 48.2374 54.9352 48.2686C54.9867 48.2998 55.0318 48.3411 55.0678 48.3901L55.068 48.3905L55.8 49.3895L57.6798 46.5029C57.713 46.4518 57.7557 46.4079 57.8055 46.3737C57.8553 46.3395 57.9112 46.3156 57.9699 46.3036C58.0287 46.2915 58.0893 46.2914 58.1481 46.3033C58.2069 46.3152 58.2628 46.3388 58.3127 46.3729C58.3626 46.4069 58.4055 46.4507 58.4388 46.5017C58.4722 46.5527 58.4953 46.6099 58.5071 46.6701C58.5188 46.7303 58.5188 46.7923 58.5071 46.8525C58.4954 46.9127 58.4722 46.9699 58.4389 47.021L56.2014 50.4568C56.1609 50.5189 56.1065 50.5702 56.0427 50.6064C55.9788 50.6425 55.9075 50.6625 55.8345 50.6646C55.8303 50.6646 55.8261 50.6647 55.8218 50.6647Z" fill="#E6E6E6"/>
<path d="M95.0722 52.3331C95.2042 52.2536 95.3176 52.1455 95.4044 52.0163C95.4912 51.8871 95.5493 51.74 95.5745 51.5853C95.5998 51.4307 95.5916 51.2722 95.5505 51.1211C95.5095 50.9701 95.4366 50.8301 95.337 50.711L98.6297 44.8208L96.6977 44.9283L93.7959 50.6361C93.6115 50.8207 93.4997 51.0681 93.4816 51.3315C93.4635 51.5948 93.5404 51.8558 93.6978 52.065C93.8551 52.2741 94.0819 52.417 94.3352 52.4664C94.5885 52.5158 94.8507 52.4684 95.0722 52.3331Z" fill="#FFB8B8"/>
<path d="M91.3635 31.6868C91.3635 31.6868 94.8509 30.5392 95.7477 33.2936C96.6446 36.048 99.6597 43.5079 99.6597 43.5079L96.4204 50.2792L94.963 48.6725L96.5206 43.967L92.0362 37.0809L91.3635 31.6868Z" fill="#3F3D56"/>
<path d="M96.5316 49.5876C96.4266 49.4058 96.2934 49.2427 96.1373 49.1046L95.0246 48.0083L94.9627 48.1496C94.8486 48.3335 94.7738 48.54 94.7432 48.7555C94.7125 48.9711 94.7267 49.1908 94.7848 49.4004C94.8429 49.6099 94.9436 49.8045 95.0803 49.9714C95.217 50.1384 95.3866 50.2738 95.578 50.369C95.7414 50.4568 95.9257 50.4958 96.1097 50.4814C96.2013 50.4732 96.2898 50.443 96.3678 50.3931C96.4458 50.3432 96.5112 50.2751 96.5586 50.1944C96.6019 50.0985 96.6221 49.9932 96.6174 49.8877C96.6127 49.7821 96.5832 49.6792 96.5316 49.5876Z" fill="#E6E6E6"/>
<path d="M56.7454 53.6562H56.4502V65.2986H66.4375V64.9964H56.7454V53.6562Z" fill="#3F3D56"/>
<path d="M77.3865 65.2457C77.386 64.7249 77.1837 64.2255 76.8239 63.8572C76.4641 63.4889 75.9763 63.2817 75.4675 63.2812H67.6439C67.1349 63.2812 66.6468 63.4882 66.2869 63.8566C65.927 64.2251 65.7249 64.7247 65.7249 65.2457C65.7249 65.7668 65.927 66.2664 66.2869 66.6349C66.6468 67.0033 67.1349 67.2102 67.6439 67.2102H75.4675C75.9763 67.2097 76.4641 67.0026 76.8239 66.6343C77.1837 66.266 77.386 65.7666 77.3865 65.2457Z" fill="#FF5757"/>
<path d="M56.3922 54.5333C57.3661 54.5333 58.1556 53.725 58.1556 52.7281C58.1556 51.7311 57.3661 50.9229 56.3922 50.9229C55.4183 50.9229 54.6288 51.7311 54.6288 52.7281C54.6288 53.725 55.4183 54.5333 56.3922 54.5333Z" fill="#FF5757"/>
</g>
<defs>
<clipPath id="clip0_540_3197">
<rect width="111" height="84" fill="white"/>
</clipPath>
</defs>
</svg>
