<svg width="133" height="94" viewBox="0 0 133 94" fill="none" xmlns="http://www.w3.org/2000/svg">
<g clip-path="url(#clip0_540_3261)">
<path d="M103.528 9.41608H112.01C112.826 9.41682 113.607 9.74204 114.184 10.3203C114.761 10.8987 115.085 11.6828 115.086 12.5007V21.7235C115.194 21.717 115.302 21.7073 115.409 21.6943C117.419 21.4823 119.329 20.7115 120.925 19.4687C122.521 18.226 123.739 16.5608 124.442 14.6609C125.145 12.761 125.304 10.7019 124.903 8.71585C124.502 6.72976 123.555 4.89565 122.17 3.42031C120.785 1.94497 119.016 0.887073 117.064 0.365886C115.111 -0.1553 113.052 -0.119046 111.119 0.470563C109.186 1.06017 107.456 2.17969 106.123 3.70289C104.791 5.22609 103.909 7.09239 103.577 9.09139C103.559 9.19853 103.543 9.30731 103.528 9.41608Z" fill="#F2F2F2"/>
<path d="M3.39913 9.09131H112.01C112.911 9.0923 113.775 9.4518 114.413 10.091C115.05 10.7301 115.408 11.5967 115.409 12.5006V69.9711C115.408 70.875 115.05 71.7416 114.413 72.3808C113.775 73.0199 112.911 73.3794 112.01 73.3804H3.39913C2.49792 73.3794 1.6339 73.0199 0.996651 72.3808C0.359406 71.7416 0.000961304 70.875 -2.28882e-05 69.9711V12.5006C0.000961304 11.5967 0.359406 10.7301 0.996651 10.091C1.6339 9.4518 2.49792 9.0923 3.39913 9.09131ZM0.323708 69.9711C0.324448 70.789 0.648697 71.5731 1.2253 72.1514C1.80189 72.7298 2.5837 73.055 3.39913 73.0557H112.01C112.825 73.055 113.607 72.7298 114.184 72.1514C114.76 71.5731 115.085 70.789 115.085 69.9711V12.5006C115.085 11.6827 114.76 10.8986 114.184 10.3203C113.607 9.74196 112.825 9.41674 112.01 9.416H3.39913C2.5837 9.41674 1.80189 9.74196 1.2253 10.3203C0.648697 10.8986 0.324448 11.6827 0.323708 12.5006V69.9711Z" fill="#3F3D56"/>
<path d="M8.74072 18.4053H106.669C106.712 18.4053 106.753 18.3882 106.783 18.3577C106.813 18.3273 106.83 18.286 106.83 18.2429C106.83 18.1999 106.813 18.1586 106.783 18.1281C106.753 18.0977 106.712 18.0806 106.669 18.0806H8.74072C8.69779 18.0806 8.65662 18.0977 8.62627 18.1281C8.59591 18.1586 8.57885 18.1999 8.57885 18.2429C8.57885 18.286 8.59591 18.3273 8.62627 18.3577C8.65662 18.3882 8.69779 18.4053 8.74072 18.4053Z" fill="#3F3D56"/>
<path d="M78.9897 66.3997C79.0327 66.3997 79.0738 66.3826 79.1042 66.3521C79.1346 66.3217 79.1516 66.2804 79.1516 66.2373V12.8254C79.1516 12.7824 79.1346 12.7411 79.1042 12.7106C79.0738 12.6802 79.0327 12.6631 78.9897 12.6631C78.9468 12.6631 78.9056 12.6802 78.8753 12.7106C78.8449 12.7411 78.8279 12.7824 78.8279 12.8254V66.2373C78.8279 66.2804 78.8449 66.3217 78.8753 66.3521C78.9056 66.3826 78.9468 66.3997 78.9897 66.3997Z" fill="#3F3D56"/>
<path d="M54.5482 66.3997C54.5911 66.3997 54.6323 66.3826 54.6627 66.3521C54.693 66.3217 54.7101 66.2804 54.7101 66.2373V12.8254C54.7101 12.7824 54.693 12.7411 54.6627 12.7106C54.6323 12.6802 54.5911 12.6631 54.5482 12.6631C54.5053 12.6631 54.4641 12.6802 54.4338 12.7106C54.4034 12.7411 54.3864 12.7824 54.3864 12.8254V66.2373C54.3864 66.2804 54.4034 66.3217 54.4338 66.3521C54.4641 66.3826 54.5053 66.3997 54.5482 66.3997Z" fill="#3F3D56"/>
<path d="M30.1067 66.3997C30.1496 66.3997 30.1908 66.3826 30.2211 66.3521C30.2515 66.3217 30.2686 66.2804 30.2686 66.2373V12.8254C30.2686 12.7824 30.2515 12.7411 30.2211 12.7106C30.1908 12.6802 30.1496 12.6631 30.1067 12.6631C30.0638 12.6631 30.0226 12.6802 29.9922 12.7106C29.9619 12.7411 29.9448 12.7824 29.9448 12.8254V66.2373C29.9448 66.2804 29.9619 66.3217 29.9922 66.3521C30.0226 66.3826 30.0638 66.3997 30.1067 66.3997Z" fill="#3F3D56"/>
<path d="M94.7043 35.1621H100.619C100.812 35.1619 100.997 35.0848 101.134 34.9479C101.27 34.8109 101.347 34.6252 101.347 34.4315V27.4312C101.347 27.2376 101.27 27.0519 101.134 26.9149C100.997 26.7779 100.812 26.7009 100.619 26.7007H94.7043C94.5111 26.7009 94.326 26.7779 94.1894 26.9149C94.0529 27.0519 93.9761 27.2376 93.9759 27.4312V34.4315C93.9761 34.6252 94.0529 34.8109 94.1894 34.9479C94.326 35.0848 94.5111 35.1619 94.7043 35.1621Z" fill="#FF5757"/>
<path d="M86.2873 55.1309H92.2018C92.3949 55.1306 92.58 55.0536 92.7166 54.9166C92.8532 54.7797 92.93 54.594 92.9302 54.4003V47.4C92.93 47.2063 92.8532 47.0206 92.7166 46.8836C92.58 46.7467 92.3949 46.6696 92.2018 46.6694H86.2873C86.0942 46.6696 85.909 46.7467 85.7725 46.8836C85.6359 47.0206 85.5591 47.2063 85.5589 47.4V54.4003C85.5591 54.594 85.6359 54.7797 85.7725 54.9166C85.909 55.0536 86.0942 55.1306 86.2873 55.1309Z" fill="#FF5757"/>
<path d="M67.1873 39.3833H73.1018C73.2949 39.3831 73.4801 39.306 73.6166 39.1691C73.7532 39.0321 73.83 38.8464 73.8302 38.6527V31.6524C73.83 31.4587 73.7532 31.273 73.6166 31.1361C73.4801 30.9991 73.2949 30.9221 73.1018 30.9219H67.1873C66.9942 30.9221 66.809 30.9991 66.6725 31.1361C66.5359 31.273 66.4591 31.4587 66.4589 31.6524V38.6527C66.4591 38.8464 66.5359 39.0321 66.6725 39.1691C66.809 39.306 66.9942 39.3831 67.1873 39.3833Z" fill="#FF5757"/>
<path d="M42.422 31.7529H48.3366C48.5297 31.7527 48.7148 31.6757 48.8514 31.5387C48.9879 31.4017 49.0647 31.2161 49.0649 31.0224V24.0221C49.0647 23.8284 48.9879 23.6427 48.8514 23.5057C48.7148 23.3688 48.5297 23.2917 48.3366 23.2915H42.422C42.2289 23.2917 42.0438 23.3688 41.9072 23.5057C41.7707 23.6427 41.6939 23.8284 41.6936 24.0221V31.0224C41.6939 31.2161 41.7707 31.4017 41.9072 31.5387C42.0438 31.6757 42.2289 31.7527 42.422 31.7529Z" fill="#FF5757"/>
<path d="M19.5992 31.7529H25.5137C25.7068 31.7527 25.8919 31.6757 26.0285 31.5387C26.165 31.4017 26.2418 31.2161 26.2421 31.0224V24.0221C26.2418 23.8284 26.165 23.6427 26.0285 23.5057C25.8919 23.3688 25.7068 23.2917 25.5137 23.2915H19.5992C19.406 23.2917 19.2209 23.3688 19.0844 23.5057C18.9478 23.6427 18.871 23.8284 18.8708 24.0221V31.0224C18.871 31.2161 18.9478 31.4017 19.0844 31.5387C19.2209 31.6757 19.406 31.7527 19.5992 31.7529Z" fill="#FF5757"/>
<path d="M9.07804 33.7012H14.9926C15.1857 33.7009 15.3708 33.6239 15.5074 33.4869C15.6439 33.35 15.7207 33.1643 15.7209 32.9706V25.9703C15.7207 25.7766 15.6439 25.5909 15.5074 25.454C15.3708 25.317 15.1857 25.24 14.9926 25.2397H9.07804C8.88493 25.24 8.69979 25.317 8.56324 25.454C8.42668 25.5909 8.34987 25.7766 8.34965 25.9703V32.9706C8.34987 33.1643 8.42668 33.35 8.56324 33.4869C8.69979 33.6239 8.88493 33.7009 9.07804 33.7012Z" fill="#E6E6E6"/>
<path d="M13.7721 46.2017H19.6866C19.8798 46.2014 20.0649 46.1244 20.2015 45.9874C20.338 45.8505 20.4148 45.6648 20.415 45.4711V38.4708C20.4148 38.2771 20.338 38.0914 20.2015 37.9544C20.0649 37.8175 19.8798 37.7405 19.6866 37.7402H13.7721C13.579 37.7405 13.3939 37.8175 13.2573 37.9544C13.1208 38.0914 13.044 38.2771 13.0437 38.4708V45.4711C13.044 45.6648 13.1208 45.8505 13.2573 45.9874C13.3939 46.1244 13.579 46.2014 13.7721 46.2017Z" fill="#E6E6E6"/>
<path d="M33.8433 43.604H39.7578C39.9509 43.6038 40.1361 43.5267 40.2726 43.3898C40.4092 43.2528 40.486 43.0671 40.4862 42.8734V35.8731C40.486 35.6794 40.4092 35.4938 40.2726 35.3568C40.1361 35.2198 39.9509 35.1428 39.7578 35.1426H33.8433C33.6502 35.1428 33.465 35.2198 33.3285 35.3568C33.1919 35.4938 33.1151 35.6794 33.1149 35.8731V42.8734C33.1151 43.0671 33.1919 43.2528 33.3285 43.3898C33.465 43.5267 33.6502 43.6038 33.8433 43.604Z" fill="#FF6584"/>
<path d="M45.3356 46.2017H51.2501C51.4432 46.2014 51.6284 46.1244 51.7649 45.9874C51.9015 45.8505 51.9783 45.6648 51.9785 45.4711V38.4708C51.9783 38.2771 51.9015 38.0914 51.7649 37.9544C51.6284 37.8175 51.4432 37.7405 51.2501 37.7402H45.3356C45.1425 37.7405 44.9574 37.8175 44.8208 37.9544C44.6843 38.0914 44.6074 38.2771 44.6072 38.4708V45.4711C44.6074 45.6648 44.6843 45.8505 44.8208 45.9874C44.9574 46.1244 45.1425 46.2014 45.3356 46.2017Z" fill="#E6E6E6"/>
<path d="M70.1009 57.2412H76.0154C76.2085 57.241 76.3936 57.1639 76.5302 57.027C76.6668 56.89 76.7436 56.7043 76.7438 56.5106V49.5103C76.7436 49.3167 76.6668 49.131 76.5302 48.994C76.3936 48.857 76.2085 48.78 76.0154 48.7798H70.1009C69.9078 48.78 69.7226 48.857 69.5861 48.994C69.4495 49.131 69.3727 49.3167 69.3725 49.5103V56.5107C69.3727 56.7043 69.4495 56.89 69.5861 57.027C69.7226 57.1639 69.9078 57.241 70.1009 57.2412Z" fill="#E6E6E6"/>
<path d="M100.046 47.9873H105.96C106.153 47.9871 106.339 47.91 106.475 47.7731C106.612 47.6361 106.689 47.4504 106.689 47.2567V40.2564C106.689 40.0627 106.612 39.877 106.475 39.7401C106.339 39.6031 106.153 39.5261 105.96 39.5259H100.046C99.8527 39.5261 99.6676 39.6031 99.531 39.7401C99.3944 39.877 99.3176 40.0627 99.3174 40.2564V47.2567C99.3176 47.4504 99.3944 47.6361 99.531 47.7731C99.6676 47.91 99.8527 47.9871 100.046 47.9873Z" fill="#FF6584"/>
<path d="M83.3737 35.1621H89.2882C89.4813 35.1619 89.6665 35.0848 89.803 34.9479C89.9396 34.8109 90.0164 34.6252 90.0166 34.4315V27.4312C90.0164 27.2376 89.9396 27.0519 89.803 26.9149C89.6665 26.7779 89.4813 26.7009 89.2882 26.7007H83.3737C83.1806 26.7009 82.9954 26.7779 82.8589 26.9149C82.7223 27.0519 82.6455 27.2376 82.6453 27.4312V34.4315C82.6455 34.6252 82.7223 34.8109 82.8589 34.9479C82.9954 35.0848 83.1806 35.1619 83.3737 35.1621Z" fill="#E6E6E6"/>
<path d="M88.216 15.7475H97.4423C97.614 15.7475 97.7787 15.6791 97.9001 15.5573C98.0215 15.4355 98.0897 15.2703 98.0897 15.0981C98.0897 14.9259 98.0215 14.7607 97.9001 14.6389C97.7787 14.5171 97.614 14.4487 97.4423 14.4487H88.216C88.0443 14.4487 87.8796 14.5171 87.7582 14.6389C87.6368 14.7607 87.5685 14.9259 87.5685 15.0981C87.5685 15.2703 87.6368 15.4355 87.7582 15.5573C87.8796 15.6791 88.0443 15.7475 88.216 15.7475Z" fill="#CCCCCC"/>
<path d="M62.1558 15.7475H71.3821C71.5538 15.7475 71.7185 15.6791 71.8399 15.5573C71.9613 15.4355 72.0295 15.2703 72.0295 15.0981C72.0295 14.9259 71.9613 14.7607 71.8399 14.6389C71.7185 14.5171 71.5538 14.4487 71.3821 14.4487H62.1558C61.9841 14.4487 61.8194 14.5171 61.698 14.6389C61.5766 14.7607 61.5084 14.9259 61.5084 15.0981C61.5084 15.2703 61.5766 15.4355 61.698 15.5573C61.8194 15.6791 61.9841 15.7475 62.1558 15.7475Z" fill="#CCCCCC"/>
<path d="M37.7144 15.7475H46.9407C47.1124 15.7475 47.2771 15.6791 47.3985 15.5573C47.5199 15.4355 47.5881 15.2703 47.5881 15.0981C47.5881 14.9259 47.5199 14.7607 47.3985 14.6389C47.2771 14.5171 47.1124 14.4487 46.9407 14.4487H37.7144C37.5427 14.4487 37.378 14.5171 37.2566 14.6389C37.1352 14.7607 37.067 14.9259 37.067 15.0981C37.067 15.2703 37.1352 15.4355 37.2566 15.5573C37.378 15.6791 37.5427 15.7475 37.7144 15.7475Z" fill="#CCCCCC"/>
<path d="M14.8915 15.7475H24.1178C24.2895 15.7475 24.4542 15.6791 24.5756 15.5573C24.697 15.4355 24.7653 15.2703 24.7653 15.0981C24.7653 14.9259 24.697 14.7607 24.5756 14.6389C24.4542 14.5171 24.2895 14.4487 24.1178 14.4487H14.8915C14.7198 14.4487 14.5551 14.5171 14.4337 14.6389C14.3123 14.7607 14.2441 14.9259 14.2441 15.0981C14.2441 15.2703 14.3123 15.4355 14.4337 15.5573C14.5551 15.6791 14.7198 15.7475 14.8915 15.7475Z" fill="#CCCCCC"/>
<path d="M108.881 63.2975C109.118 63.2742 109.346 63.1992 109.551 63.0776C109.756 62.956 109.932 62.7909 110.066 62.5939C110.2 62.3968 110.29 62.1727 110.328 61.9371C110.367 61.7016 110.353 61.4605 110.289 61.2308L114.438 57.357L112.244 56.7988L108.164 60.1178C107.787 60.2519 107.471 60.5204 107.278 60.8722C107.084 61.224 107.026 61.6348 107.114 62.0268C107.203 62.4187 107.431 62.7645 107.757 62.9988C108.082 63.233 108.482 63.3392 108.881 63.2975Z" fill="#FFB8B8"/>
<path d="M103.152 91.929H101.167L100.223 84.252H103.152L103.152 91.929Z" fill="#FFB8B8"/>
<path d="M97.34 93.7769L103.577 93.7771L103.577 91.3603L99.7497 91.3601C99.1106 91.3601 98.4977 91.6147 98.0458 92.0679C97.5939 92.5212 97.34 93.1359 97.34 93.7769Z" fill="#2F2E41"/>
<path d="M116.758 90.4918L114.84 91.0039L111.959 83.8288L114.789 83.0732L116.758 90.4918Z" fill="#FFB8B8"/>
<path d="M111.616 93.7773L117.642 92.1684L117.023 89.8329L113.324 90.8202C112.707 90.9851 112.18 91.3892 111.859 91.9438C111.539 92.4984 111.451 93.1579 111.616 93.7773Z" fill="#2F2E41"/>
<path d="M100.633 90.4755H103.662C103.853 90.4762 104.037 90.405 104.179 90.276C104.321 90.147 104.409 89.9696 104.426 89.7785L106.265 70.6328C106.278 70.4923 106.34 70.361 106.439 70.2611C106.539 70.1613 106.67 70.0992 106.81 70.0855C106.95 70.0718 107.09 70.1073 107.207 70.186C107.324 70.2646 107.409 70.3816 107.45 70.5167L112.787 88.4072C112.843 88.5973 112.971 88.7583 113.143 88.8565C113.315 88.9546 113.518 88.9825 113.71 88.9341L116.526 88.2277C116.625 88.203 116.717 88.1592 116.799 88.0985C116.88 88.0379 116.949 87.9617 117 87.8744C117.052 87.7871 117.086 87.6903 117.101 87.5897C117.115 87.4891 117.11 87.3866 117.084 87.2882C117.038 87.1079 112.486 69.2632 112.446 69.0797C111.415 61.4547 110.18 59.4114 109.517 58.3138C109.463 58.223 109.412 58.1394 109.367 58.0605C109.31 57.9617 108.96 56.9818 108.738 56.3454C108.709 56.2419 108.659 56.1455 108.592 56.0623C108.524 55.9791 108.439 55.9109 108.344 55.862C105.558 54.433 102.299 55.4222 101.366 55.7594C101.212 55.814 101.079 55.9174 100.988 56.0541C98.1899 60.2867 99.5629 84.8692 99.8666 89.7541C99.8792 89.9495 99.9655 90.1328 100.108 90.2668C100.25 90.4007 100.438 90.4753 100.633 90.4755Z" fill="#2F2E41"/>
<path d="M108.448 41.9802C106.252 41.9802 104.472 40.1949 104.472 37.9928C104.472 35.7906 106.252 34.0054 108.448 34.0054C110.643 34.0054 112.423 35.7906 112.423 37.9928C112.423 40.1949 110.643 41.9802 108.448 41.9802Z" fill="#FFB8B8"/>
<path d="M108.869 57.1198L108.898 57.092C108.951 57.04 114.248 51.8353 113.563 47.0226C113.269 44.9641 111.609 43.6488 108.76 43.2187C107.714 43.0628 106.647 43.291 105.755 43.8613C104.862 44.4316 104.205 45.3057 103.905 46.3229L101.088 55.98L108.869 57.1198Z" fill="#CCCCCC"/>
<path d="M111.58 60.8215L115.355 57.0598C115.613 56.8011 115.8 56.4802 115.899 56.1278C115.997 55.7755 116.004 55.4037 115.918 55.0481L114.091 47.5933C114.036 47.3699 113.936 47.1602 113.797 46.977C113.658 46.7939 113.484 46.6413 113.284 46.5287C113.084 46.4161 112.863 46.3458 112.635 46.3223C112.406 46.2988 112.176 46.3224 111.957 46.3919C111.54 46.5266 111.192 46.8188 110.987 47.2064C110.781 47.5941 110.734 48.0469 110.855 48.4689L112.779 55.0271L109.668 58.3774L111.58 60.8215Z" fill="#CCCCCC"/>
<path d="M91.3354 47.9834C91.4352 48.2001 91.5812 48.3922 91.763 48.5461C91.9448 48.7001 92.1581 48.8122 92.3878 48.8746C92.6175 48.9369 92.858 48.948 93.0924 48.907C93.3268 48.8661 93.5494 48.7741 93.7446 48.6375L98.7833 51.2568L98.5606 49.0318L94.0937 46.2591C93.8432 45.9455 93.4867 45.735 93.0917 45.6674C92.6968 45.5999 92.2909 45.6799 91.9509 45.8925C91.6109 46.105 91.3605 46.4353 91.2471 46.8207C91.1336 47.206 91.1651 47.6197 91.3354 47.9834Z" fill="#FFB8B8"/>
<path d="M94.2948 49.6397L99.2068 51.7686C99.5337 51.9092 99.8912 51.963 100.245 51.925C100.599 51.8869 100.937 51.7583 101.226 51.5513L107.473 47.0626C107.659 46.9286 107.816 46.7577 107.934 46.5604C108.052 46.3631 108.128 46.1436 108.158 45.9156C108.188 45.6875 108.171 45.4557 108.108 45.2346C108.045 45.0134 107.937 44.8075 107.792 44.6297C107.512 44.2916 107.113 44.076 106.677 44.0285C106.242 43.981 105.805 44.1053 105.46 44.3751L100.104 48.603L95.8468 46.9511L94.2948 49.6397Z" fill="#CCCCCC"/>
<path d="M107.789 39.2704C107.298 38.6541 106.382 38.6209 105.708 38.2144C104.826 37.6818 104.461 36.4918 104.745 35.499C105.03 34.5062 105.868 33.7325 106.83 33.3625C107.791 32.9924 108.861 32.9879 109.876 33.1667C111.386 33.4331 112.873 34.14 113.794 35.3696C114.715 36.5992 114.949 38.3999 114.114 39.69C113.731 40.283 113.139 40.7724 112.985 41.4624C112.784 42.3682 113.418 43.2418 114.096 43.8726C114.87 44.5912 115.757 45.193 116.434 46.003C117.111 46.8131 117.563 47.9197 117.254 48.9305C116.995 49.7773 116.241 50.4012 115.415 50.7137C114.589 51.0261 113.689 51.0713 112.806 51.0886C111.948 51.1054 111.037 51.0845 110.315 50.6208C109.542 50.1244 109.129 49.1827 109.099 48.2624C109.068 47.3421 109.375 46.4405 109.786 45.6171C110.031 45.1263 110.315 44.6507 110.478 44.1267C110.641 43.6027 110.669 43.0081 110.408 42.5255C110.134 42.0182 109.58 41.7123 109.016 41.6011C108.986 41.5953 108.955 41.5901 108.923 41.5855C108.762 41.5647 108.608 41.5113 108.468 41.4287C108.329 41.3462 108.207 41.2361 108.112 41.1052C108.016 40.9742 107.947 40.8252 107.911 40.667C107.874 40.5088 107.869 40.3448 107.898 40.1849C107.962 39.8254 107.956 39.4813 107.789 39.2704Z" fill="#2F2E41"/>
<path d="M54.7825 92.0989H56.7669L57.7109 84.4219L54.7822 84.422L54.7825 92.0989Z" fill="#A0616A"/>
<path d="M58.1845 91.5303H54.3574V93.9471H60.5941C60.5941 93.6297 60.5318 93.3154 60.4107 93.0222C60.2896 92.729 60.1121 92.4626 59.8883 92.2381C59.6646 92.0137 59.399 91.8357 59.1066 91.7143C58.8142 91.5928 58.5009 91.5303 58.1845 91.5303Z" fill="#2F2E41"/>
<path d="M40.3839 89.8445L42.1889 90.6713L46.228 84.0818L43.5639 82.8613L40.3839 89.8445Z" fill="#A0616A"/>
<path d="M43.7138 90.7449L40.2326 89.1502L39.2315 91.3485L44.9045 93.9474C45.036 93.6587 45.1095 93.3469 45.1208 93.0297C45.1321 92.7125 45.081 92.3962 44.9704 92.0988C44.8599 91.8014 44.692 91.5288 44.4764 91.2965C44.2608 91.0642 44.0016 90.8768 43.7138 90.7449Z" fill="#2F2E41"/>
<path d="M46.1628 66.2139C45.9726 66.0704 45.8162 65.8868 45.7045 65.6761C45.5927 65.4653 45.5284 65.2326 45.516 64.9943C45.5037 64.7559 45.5436 64.5178 45.6329 64.2966C45.7222 64.0754 45.8588 63.8765 46.0331 63.714L43.7004 58.4053L46.6639 58.909L48.4247 63.873C48.6776 64.1847 48.8076 64.5786 48.7902 64.98C48.7728 65.3815 48.6092 65.7626 48.3304 66.0511C48.0516 66.3397 47.6769 66.5156 47.2774 66.5456C46.8779 66.5756 46.4813 66.4576 46.1628 66.2139Z" fill="#A0616A"/>
<path d="M54.909 90.0749H56.8048C56.9886 90.0743 57.1655 90.0042 57.3002 89.8786C57.4348 89.7531 57.5173 89.5812 57.5313 89.3973L58.5651 61.7078C58.5728 61.6017 58.5573 61.4952 58.5197 61.3957C58.482 61.2962 58.4232 61.2062 58.3473 61.1319C58.2713 61.0576 58.1801 61.0009 58.0801 60.9656C57.98 60.9303 57.8734 60.9174 57.7679 60.9278L46.804 62.0956C46.6263 62.113 46.4612 62.1953 46.34 62.3268C46.2188 62.4583 46.1499 62.6298 46.1465 62.8089L45.9167 75.023C45.9155 75.0893 45.9027 75.1549 45.8789 75.2168L41.3814 86.9143C41.3467 87.0046 41.3302 87.101 41.333 87.1978C41.3357 87.2947 41.3576 87.39 41.3974 87.4782C41.4372 87.5665 41.4942 87.6459 41.5649 87.7118C41.6356 87.7778 41.7186 87.829 41.8093 87.8625L43.7303 88.5724C43.8972 88.6341 44.0808 88.6324 44.2464 88.5676C44.4121 88.5029 44.5485 88.3797 44.6299 88.2211L50.1547 77.4463C50.1848 77.3878 50.2068 77.3254 50.2202 77.2608L51.164 72.6999C51.1913 72.5677 51.2648 72.4495 51.3711 72.3667C51.4775 72.2838 51.6097 72.2417 51.7443 72.2478C51.8788 72.2539 52.0067 72.3079 52.1052 72.4C52.2036 72.4922 52.2661 72.6165 52.2815 72.7507L54.1854 89.4275C54.2057 89.6057 54.2906 89.7702 54.4241 89.8896C54.5576 90.009 54.7302 90.075 54.909 90.0749Z" fill="#2F2E41"/>
<path d="M53.965 40.0573C51.7694 40.0573 49.9895 38.2721 49.9895 36.0699C49.9895 33.8677 51.7694 32.0825 53.965 32.0825C56.1606 32.0825 57.9406 33.8677 57.9406 36.0699C57.9406 38.2721 56.1606 40.0573 53.965 40.0573Z" fill="#A0616A"/>
<path d="M51.2387 64.2394C53.9346 64.2096 56.5664 63.41 58.8257 61.9343L58.8644 61.9076L58.8604 61.8605L57.3397 44.0973C57.2873 43.4946 57.019 42.9314 56.5846 42.5117C56.1502 42.0921 55.579 41.8444 54.9766 41.8144C53.0058 41.7236 50.3585 41.8381 48.9414 42.8967C46.7998 44.4966 45.7676 46.9057 46.1095 49.5062C46.8185 54.8992 46.0153 62.174 45.9214 62.9857L45.9146 63.0442L45.968 63.0688C47.6189 63.8392 49.4177 64.2387 51.2387 64.2394Z" fill="#FF5757"/>
<path d="M45.9397 63.0157C46.0517 63.0155 46.1625 62.992 46.2651 62.9467C46.3676 62.9014 46.4597 62.8352 46.5354 62.7524L47.4051 61.8008C47.499 61.6974 47.5649 61.5715 47.5963 61.4352C47.6278 61.2988 47.6237 61.1567 47.5846 61.0224L45.6016 54.2909L48.6188 47.9361C48.7597 47.6386 48.7942 47.3016 48.7165 46.9816C48.648 46.7007 48.4963 46.4472 48.2813 46.2546C48.0663 46.062 47.7981 45.9393 47.5121 45.9026C47.2261 45.866 46.9358 45.9172 46.6794 46.0494C46.423 46.1816 46.2126 46.3887 46.076 46.6433L41.9817 53.3063C41.8154 53.5766 41.7177 53.8837 41.6974 54.2007C41.6771 54.5177 41.7347 54.8348 41.8651 55.1243L45.2011 62.5378C45.2561 62.6604 45.3406 62.7673 45.447 62.8489C45.5534 62.9305 45.6784 62.9843 45.8108 63.0053C45.8534 63.0122 45.8965 63.0157 45.9397 63.0157Z" fill="#FF5757"/>
<path d="M73.962 50.1571C73.7711 50.2995 73.5514 50.3982 73.3183 50.4462C73.0852 50.4943 72.8444 50.4905 72.613 50.4351C72.3815 50.3797 72.165 50.2741 71.9786 50.1257C71.7922 49.9773 71.6406 49.7898 71.5343 49.5762L65.7982 50.3224L67.1164 47.6131L72.3615 47.3199C72.731 47.1646 73.1444 47.1507 73.5235 47.2807C73.9025 47.4108 74.2209 47.6757 74.4182 48.0254C74.6155 48.3752 74.678 48.7853 74.5939 49.1782C74.5099 49.571 74.285 49.9193 73.962 50.1571Z" fill="#A0616A"/>
<path d="M61.3185 51.637C61.4184 51.637 61.5182 51.6301 61.6171 51.6163L70.6412 50.361C70.7887 50.3407 70.9288 50.2839 71.0489 50.1957C71.169 50.1075 71.2654 49.9907 71.3292 49.8559C71.3499 49.8124 71.3671 49.7674 71.3807 49.7213C71.4156 49.6014 71.4254 49.4756 71.4094 49.3518C71.3934 49.2279 71.3519 49.1088 71.2877 49.0018L70.5409 47.76C70.4606 47.6273 70.3476 47.5175 70.2128 47.4412C70.078 47.3648 69.9259 47.3245 69.7711 47.324H69.7699L61.9039 47.333L56.0292 42.054C55.7559 41.8089 55.4069 41.6657 55.0407 41.6482C54.7192 41.6333 54.4007 41.7164 54.1273 41.8867C53.8539 42.057 53.6383 42.3064 53.5091 42.602C53.3798 42.8977 53.343 43.2256 53.4034 43.5427C53.4638 43.8598 53.6186 44.1511 53.8473 44.3781L59.7093 50.9171C59.9121 51.1437 60.1603 51.3248 60.4375 51.4489C60.7148 51.5729 61.0149 51.637 61.3185 51.637Z" fill="#FF5757"/>
<path d="M53.5131 39.617C53.1498 38.7737 52.8424 37.6506 53.5392 37.0543C53.9434 36.7085 54.5256 36.7078 55.0551 36.6648C56.5471 36.5435 58.0829 35.855 58.8121 34.5439C59.5414 33.2329 59.1341 31.2833 57.7584 30.6918C56.831 30.2931 55.7678 30.5647 54.7971 30.8408L51.8826 31.6697C51.0167 31.916 50.1074 32.1876 49.484 32.8388C48.4897 33.8774 48.564 35.6331 49.3537 36.8355C50.1435 38.0379 51.3328 39.2919 52.6942 39.7484L53.5131 39.617Z" fill="#2F2E41"/>
<path d="M13.3039 93.9999H132.807C132.833 94 132.858 93.995 132.881 93.9853C132.905 93.9757 132.926 93.9614 132.944 93.9435C132.962 93.9255 132.976 93.9042 132.986 93.8807C132.996 93.8572 133.001 93.832 133.001 93.8066C133.001 93.7812 132.996 93.756 132.986 93.7325C132.976 93.709 132.962 93.6877 132.944 93.6697C132.926 93.6517 132.905 93.6375 132.881 93.6278C132.858 93.6182 132.833 93.6132 132.807 93.6133H13.3039C13.2786 93.6132 13.2535 93.6182 13.23 93.6278C13.2066 93.6375 13.1852 93.6517 13.1673 93.6697C13.1493 93.6877 13.1351 93.709 13.1254 93.7325C13.1156 93.756 13.1106 93.7812 13.1106 93.8066C13.1106 93.832 13.1156 93.8572 13.1254 93.8807C13.1351 93.9042 13.1493 93.9255 13.1673 93.9435C13.1852 93.9614 13.2066 93.9757 13.23 93.9853C13.2535 93.995 13.2786 94 13.3039 93.9999Z" fill="#3F3D56"/>
</g>
<defs>
<clipPath id="clip0_540_3261">
<rect width="133" height="94" fill="white" transform="matrix(-1 0 0 1 133 0)"/>
</clipPath>
</defs>
</svg>
